<?xml version="1.0" encoding="UTF-8" standalone="no"?>
<!DOCTYPE svg PUBLIC "-//W3C//DTD SVG 1.1//EN"
 "http://www.w3.org/Graphics/SVG/1.1/DTD/svg11.dtd">
<!-- Generated by graphviz version 2.43.0 (0)
 -->
<!-- Title: com.tia.bmm.server.main.MainMenu.main Pages: 1 -->
<svg width="892pt" height="622pt"
 viewBox="0.00 0.00 892.00 622.43" xmlns="http://www.w3.org/2000/svg" xmlns:xlink="http://www.w3.org/1999/xlink">
<g id="graph0" class="graph" transform="scale(1 1) rotate(0) translate(4 618.43)">
<title>com.tia.bmm.server.main.MainMenu.main</title>
<polygon fill="white" stroke="transparent" points="-4,4 -4,-618.43 888,-618.43 888,4 -4,4"/>
<!-- Node1 -->
<g id="node1" class="node">
<title>Node1</title>
<g id="a_node1"><a xlink:title=" ">
<polygon fill="#bfbfbf" stroke="black" points="0,-196.5 0,-226.5 130,-226.5 130,-196.5 0,-196.5"/>
<text text-anchor="start" x="8" y="-214.5" font-family="Helvetica,sans-Serif" font-size="10.00">com.tia.bmm.server.main.</text>
<text text-anchor="middle" x="65" y="-203.5" font-family="Helvetica,sans-Serif" font-size="10.00">MainMenu.main</text>
</a>
</g>
</g>
<!-- Node2 -->
<g id="node2" class="node">
<title>Node2</title>
<g id="a_node2"><a xlink:href="../../d7/d7d/classcom_1_1tia_1_1bmm_1_1server_1_1movie_1_1_movie_list.html#aa0f4c3a259c2b50cb6dd86a297826ac8" target="_top" xlink:title=" ">
<polygon fill="white" stroke="black" points="174.5,-509.5 174.5,-539.5 309.5,-539.5 309.5,-509.5 174.5,-509.5"/>
<text text-anchor="start" x="182.5" y="-527.5" font-family="Helvetica,sans-Serif" font-size="10.00">com.tia.bmm.server.movie.</text>
<text text-anchor="middle" x="242" y="-516.5" font-family="Helvetica,sans-Serif" font-size="10.00">MovieList.addMovie</text>
</a>
</g>
</g>
<!-- Node1&#45;&gt;Node2 -->
<g id="edge1" class="edge">
<title>Node1&#45;&gt;Node2</title>
<path fill="none" stroke="midnightblue" d="M66.67,-226.53C69.6,-273.89 85.1,-421.48 166,-500.5 167.1,-501.57 168.25,-502.6 169.44,-503.58"/>
<polygon fill="midnightblue" stroke="midnightblue" points="167.62,-506.58 177.83,-509.41 171.61,-500.83 167.62,-506.58"/>
</g>
<!-- Node3 -->
<g id="node3" class="node">
<title>Node3</title>
<g id="a_node3"><a xlink:href="../../da/dca/classcom_1_1tia_1_1bmm_1_1server_1_1theatre_1_1_theatre_list.html#a79cd9edb6f713216ef907c7a1ca00c20" target="_top" xlink:title=" ">
<polygon fill="white" stroke="black" points="166,-460.5 166,-490.5 318,-490.5 318,-460.5 166,-460.5"/>
<text text-anchor="start" x="174" y="-478.5" font-family="Helvetica,sans-Serif" font-size="10.00">com.tia.bmm.server.theatre.</text>
<text text-anchor="middle" x="242" y="-467.5" font-family="Helvetica,sans-Serif" font-size="10.00">TheatreList.addMovieInTheatre</text>
</a>
</g>
</g>
<!-- Node1&#45;&gt;Node3 -->
<g id="edge2" class="edge">
<title>Node1&#45;&gt;Node3</title>
<path fill="none" stroke="midnightblue" d="M73.76,-226.82C89.6,-257.64 127.43,-328.93 166,-384.5 182.9,-408.86 204.69,-434.78 220.41,-452.7"/>
<polygon fill="midnightblue" stroke="midnightblue" points="217.93,-455.17 227.18,-460.34 223.17,-450.53 217.93,-455.17"/>
</g>
<!-- Node11 -->
<g id="node11" class="node">
<title>Node11</title>
<g id="a_node11"><a xlink:href="../../da/dca/classcom_1_1tia_1_1bmm_1_1server_1_1theatre_1_1_theatre_list.html#a501fbd7ca8bee5c6ce651197c321f3f1" target="_top" xlink:title=" ">
<polygon fill="white" stroke="black" points="366,-411.5 366,-441.5 514,-441.5 514,-411.5 366,-411.5"/>
<text text-anchor="start" x="374" y="-429.5" font-family="Helvetica,sans-Serif" font-size="10.00">com.tia.bmm.server.theatre.</text>
<text text-anchor="middle" x="440" y="-418.5" font-family="Helvetica,sans-Serif" font-size="10.00">TheatreList.displayTheatreList</text>
</a>
</g>
</g>
<!-- Node1&#45;&gt;Node11 -->
<g id="edge33" class="edge">
<title>Node1&#45;&gt;Node11</title>
<path fill="none" stroke="midnightblue" d="M81.81,-226.56C100.86,-244.28 134.28,-274 166,-295.5 244.51,-348.73 267.24,-358.16 354,-396.5 363.12,-400.53 372.98,-404.42 382.63,-407.98"/>
<polygon fill="midnightblue" stroke="midnightblue" points="381.58,-411.32 392.18,-411.42 383.96,-404.74 381.58,-411.32"/>
</g>
<!-- Node18 -->
<g id="node18" class="node">
<title>Node18</title>
<g id="a_node18"><a xlink:href="../../da/dca/classcom_1_1tia_1_1bmm_1_1server_1_1theatre_1_1_theatre_list.html#a2858d1585f152d003c49aacbbc60c272" target="_top" xlink:title=" ">
<polygon fill="white" stroke="black" points="172.5,-196.5 172.5,-226.5 311.5,-226.5 311.5,-196.5 172.5,-196.5"/>
<text text-anchor="start" x="180.5" y="-214.5" font-family="Helvetica,sans-Serif" font-size="10.00">com.tia.bmm.server.theatre.</text>
<text text-anchor="middle" x="242" y="-203.5" font-family="Helvetica,sans-Serif" font-size="10.00">TheatreList.addTheatre</text>
</a>
</g>
</g>
<!-- Node1&#45;&gt;Node18 -->
<g id="edge20" class="edge">
<title>Node1&#45;&gt;Node18</title>
<path fill="none" stroke="midnightblue" d="M130.17,-211.5C140.59,-211.5 151.49,-211.5 162.22,-211.5"/>
<polygon fill="midnightblue" stroke="midnightblue" points="162.42,-215 172.42,-211.5 162.42,-208 162.42,-215"/>
</g>
<!-- Node21 -->
<g id="node21" class="node">
<title>Node21</title>
<g id="a_node21"><a xlink:href="../../d4/d9e/classcom_1_1tia_1_1bmm_1_1server_1_1user_1_1_user_list.html#a80cb042676ca23d3fbd23fa1633c464a" target="_top" xlink:title=" ">
<polygon fill="white" stroke="black" points="178.5,-147.5 178.5,-177.5 305.5,-177.5 305.5,-147.5 178.5,-147.5"/>
<text text-anchor="start" x="186.5" y="-165.5" font-family="Helvetica,sans-Serif" font-size="10.00">com.tia.bmm.server.user.</text>
<text text-anchor="middle" x="242" y="-154.5" font-family="Helvetica,sans-Serif" font-size="10.00">UserList.createUser</text>
</a>
</g>
</g>
<!-- Node1&#45;&gt;Node21 -->
<g id="edge23" class="edge">
<title>Node1&#45;&gt;Node21</title>
<path fill="none" stroke="midnightblue" d="M119.93,-196.4C138.15,-191.3 158.65,-185.56 177.54,-180.27"/>
<polygon fill="midnightblue" stroke="midnightblue" points="178.56,-183.62 187.24,-177.55 176.67,-176.88 178.56,-183.62"/>
</g>
<!-- Node23 -->
<g id="node23" class="node">
<title>Node23</title>
<g id="a_node23"><a xlink:href="../../d7/d7d/classcom_1_1tia_1_1bmm_1_1server_1_1movie_1_1_movie_list.html#a083de16c94baa39d0cab4aa1102c3983" target="_top" xlink:title=" ">
<polygon fill="white" stroke="black" points="174.5,-255.5 174.5,-285.5 309.5,-285.5 309.5,-255.5 174.5,-255.5"/>
<text text-anchor="start" x="182.5" y="-273.5" font-family="Helvetica,sans-Serif" font-size="10.00">com.tia.bmm.server.movie.</text>
<text text-anchor="middle" x="242" y="-262.5" font-family="Helvetica,sans-Serif" font-size="10.00">MovieList.displayMovieList</text>
</a>
</g>
</g>
<!-- Node1&#45;&gt;Node23 -->
<g id="edge25" class="edge">
<title>Node1&#45;&gt;Node23</title>
<path fill="none" stroke="midnightblue" d="M110.61,-226.54C133.86,-234.38 162.46,-244.02 186.96,-252.28"/>
<polygon fill="midnightblue" stroke="midnightblue" points="185.87,-255.61 196.47,-255.49 188.11,-248.98 185.87,-255.61"/>
</g>
<!-- Node27 -->
<g id="node27" class="node">
<title>Node27</title>
<g id="a_node27"><a xlink:href="../../d4/d9e/classcom_1_1tia_1_1bmm_1_1server_1_1user_1_1_user_list.html#a51a97b3d7c0cf809c30f0086d64f807d" target="_top" xlink:title=" ">
<polygon fill="white" stroke="black" points="178.5,-98.5 178.5,-128.5 305.5,-128.5 305.5,-98.5 178.5,-98.5"/>
<text text-anchor="start" x="186.5" y="-116.5" font-family="Helvetica,sans-Serif" font-size="10.00">com.tia.bmm.server.user.</text>
<text text-anchor="middle" x="242" y="-105.5" font-family="Helvetica,sans-Serif" font-size="10.00">UserList.displayUsers</text>
</a>
</g>
</g>
<!-- Node1&#45;&gt;Node27 -->
<g id="edge34" class="edge">
<title>Node1&#45;&gt;Node27</title>
<path fill="none" stroke="midnightblue" d="M83.32,-196.25C102.44,-180.07 134.67,-154.66 166,-138.5 170.27,-136.3 174.78,-134.23 179.38,-132.3"/>
<polygon fill="midnightblue" stroke="midnightblue" points="180.89,-135.47 188.9,-128.53 178.31,-128.96 180.89,-135.47"/>
</g>
<!-- Node29 -->
<g id="node29" class="node">
<title>Node29</title>
<g id="a_node29"><a xlink:href="../../d6/da5/classcom_1_1tia_1_1bmm_1_1server_1_1admin_1_1_admin.html#a0bf6d89a4c1b5b04811ceb9c1bbe9886" target="_top" xlink:title=" ">
<polygon fill="white" stroke="black" points="174.5,-49.5 174.5,-79.5 309.5,-79.5 309.5,-49.5 174.5,-49.5"/>
<text text-anchor="start" x="182.5" y="-67.5" font-family="Helvetica,sans-Serif" font-size="10.00">com.tia.bmm.server.admin.</text>
<text text-anchor="middle" x="242" y="-56.5" font-family="Helvetica,sans-Serif" font-size="10.00">Admin.loginAsAdmin</text>
</a>
</g>
</g>
<!-- Node1&#45;&gt;Node29 -->
<g id="edge37" class="edge">
<title>Node1&#45;&gt;Node29</title>
<path fill="none" stroke="midnightblue" d="M74.37,-196.25C89.37,-170.33 123.27,-117.67 166,-88.5 168.25,-86.96 170.61,-85.52 173.04,-84.17"/>
<polygon fill="midnightblue" stroke="midnightblue" points="174.72,-87.24 182.11,-79.64 171.6,-80.97 174.72,-87.24"/>
</g>
<!-- Node30 -->
<g id="node30" class="node">
<title>Node30</title>
<g id="a_node30"><a xlink:href="../../da/dca/classcom_1_1tia_1_1bmm_1_1server_1_1theatre_1_1_theatre_list.html#ac848eb6e345b247976208cba415a8d50" target="_top" xlink:title=" ">
<polygon fill="white" stroke="black" points="172.5,-0.5 172.5,-30.5 311.5,-30.5 311.5,-0.5 172.5,-0.5"/>
<text text-anchor="start" x="180.5" y="-18.5" font-family="Helvetica,sans-Serif" font-size="10.00">com.tia.bmm.server.theatre.</text>
<text text-anchor="middle" x="242" y="-7.5" font-family="Helvetica,sans-Serif" font-size="10.00">TheatreList.removeTheatre</text>
</a>
</g>
</g>
<!-- Node1&#45;&gt;Node30 -->
<g id="edge38" class="edge">
<title>Node1&#45;&gt;Node30</title>
<path fill="none" stroke="midnightblue" d="M70.61,-196.37C81.56,-163.01 112.29,-82.67 166,-39.5 167.6,-38.22 169.27,-37 170.99,-35.85"/>
<polygon fill="midnightblue" stroke="midnightblue" points="173.13,-38.65 180.02,-30.61 169.62,-32.6 173.13,-38.65"/>
</g>
<!-- Node4 -->
<g id="node4" class="node">
<title>Node4</title>
<g id="a_node4"><a xlink:href="../../da/dca/classcom_1_1tia_1_1bmm_1_1server_1_1theatre_1_1_theatre_list.html#a34a4031767b241e14850626a5b82ae9c" target="_top" xlink:title=" ">
<polygon fill="white" stroke="black" points="355,-548.5 355,-578.5 525,-578.5 525,-548.5 355,-548.5"/>
<text text-anchor="start" x="363" y="-566.5" font-family="Helvetica,sans-Serif" font-size="10.00">com.tia.bmm.server.theatre.</text>
<text text-anchor="middle" x="440" y="-555.5" font-family="Helvetica,sans-Serif" font-size="10.00">TheatreList.checkTheatreIdPresent</text>
</a>
</g>
</g>
<!-- Node3&#45;&gt;Node4 -->
<g id="edge3" class="edge">
<title>Node3&#45;&gt;Node4</title>
<path fill="none" stroke="midnightblue" d="M297.46,-490.61C304.58,-493.46 311.61,-496.74 318,-500.5 336.71,-511.51 335.39,-522.33 354,-533.5 360.96,-537.68 368.6,-541.4 376.34,-544.67"/>
<polygon fill="midnightblue" stroke="midnightblue" points="375.22,-547.99 385.81,-548.44 377.81,-541.49 375.22,-547.99"/>
</g>
<!-- Node5 -->
<g id="node5" class="node">
<title>Node5</title>
<g id="a_node5"><a xlink:href="../../d3/dd3/classcom_1_1tia_1_1bmm_1_1server_1_1movie_1_1_movie.html#a3aa41b12e9b68f28c011ddbbd91916ce" target="_top" xlink:title=" ">
<polygon fill="white" stroke="black" points="566,-460.5 566,-490.5 701,-490.5 701,-460.5 566,-460.5"/>
<text text-anchor="start" x="574" y="-478.5" font-family="Helvetica,sans-Serif" font-size="10.00">com.tia.bmm.server.movie.</text>
<text text-anchor="middle" x="633.5" y="-467.5" font-family="Helvetica,sans-Serif" font-size="10.00">Movie.displayMovie</text>
</a>
</g>
</g>
<!-- Node3&#45;&gt;Node5 -->
<g id="edge4" class="edge">
<title>Node3&#45;&gt;Node5</title>
<path fill="none" stroke="midnightblue" d="M298.49,-490.53C316.1,-494.61 335.74,-498.47 354,-500.5 429.98,-508.95 450.06,-509.29 526,-500.5 540.12,-498.87 555.08,-496.05 569.19,-492.88"/>
<polygon fill="midnightblue" stroke="midnightblue" points="570.35,-496.21 579.29,-490.53 568.76,-489.39 570.35,-496.21"/>
</g>
<!-- Node8 -->
<g id="node8" class="node">
<title>Node8</title>
<g id="a_node8"><a xlink:href="../../da/dca/classcom_1_1tia_1_1bmm_1_1server_1_1theatre_1_1_theatre_list.html#a11ed7b410b1ceaed743494db408f2cff" target="_top" xlink:title=" ">
<polygon fill="white" stroke="black" points="354,-460.5 354,-490.5 526,-490.5 526,-460.5 354,-460.5"/>
<text text-anchor="start" x="362" y="-478.5" font-family="Helvetica,sans-Serif" font-size="10.00">com.tia.bmm.server.theatre.</text>
<text text-anchor="middle" x="440" y="-467.5" font-family="Helvetica,sans-Serif" font-size="10.00">TheatreList.displayMoviesInTheatre</text>
</a>
</g>
</g>
<!-- Node3&#45;&gt;Node8 -->
<g id="edge7" class="edge">
<title>Node3&#45;&gt;Node8</title>
<path fill="none" stroke="midnightblue" d="M318.22,-475.5C326.6,-475.5 335.21,-475.5 343.8,-475.5"/>
<polygon fill="midnightblue" stroke="midnightblue" points="343.85,-479 353.85,-475.5 343.85,-472 343.85,-479"/>
</g>
<!-- Node9 -->
<g id="node9" class="node">
<title>Node9</title>
<g id="a_node9"><a xlink:href="../../d9/ddb/classcom_1_1tia_1_1bmm_1_1server_1_1theatre_1_1_theatre.html#a7d2e896d0907035193e11e53d6ec58eb" target="_top" xlink:title=" ">
<polygon fill="white" stroke="black" points="564,-550.5 564,-580.5 703,-580.5 703,-550.5 564,-550.5"/>
<text text-anchor="start" x="572" y="-568.5" font-family="Helvetica,sans-Serif" font-size="10.00">com.tia.bmm.server.theatre.</text>
<text text-anchor="middle" x="633.5" y="-557.5" font-family="Helvetica,sans-Serif" font-size="10.00">Theatre.getMovies</text>
</a>
</g>
</g>
<!-- Node3&#45;&gt;Node9 -->
<g id="edge19" class="edge">
<title>Node3&#45;&gt;Node9</title>
<path fill="none" stroke="midnightblue" d="M304.15,-490.65C309.17,-493.4 313.89,-496.66 318,-500.5 348.86,-529.37 318.92,-564.95 354,-588.5 425.35,-636.4 531.3,-607 589.81,-584.34"/>
<polygon fill="midnightblue" stroke="midnightblue" points="591.13,-587.58 599.13,-580.63 588.54,-581.08 591.13,-587.58"/>
</g>
<!-- Node3&#45;&gt;Node11 -->
<g id="edge11" class="edge">
<title>Node3&#45;&gt;Node11</title>
<path fill="none" stroke="midnightblue" d="M303.14,-460.47C324.02,-455.24 347.61,-449.35 369.21,-443.95"/>
<polygon fill="midnightblue" stroke="midnightblue" points="370.12,-447.33 378.98,-441.51 368.42,-440.54 370.12,-447.33"/>
</g>
<!-- Node6 -->
<g id="node6" class="node">
<title>Node6</title>
<g id="a_node6"><a xlink:href="../../d3/dd3/classcom_1_1tia_1_1bmm_1_1server_1_1movie_1_1_movie.html#ad7a45b31dd418b191289f13e68d45096" target="_top" xlink:title=" ">
<polygon fill="white" stroke="black" points="745,-441.5 745,-471.5 880,-471.5 880,-441.5 745,-441.5"/>
<text text-anchor="start" x="753" y="-459.5" font-family="Helvetica,sans-Serif" font-size="10.00">com.tia.bmm.server.movie.</text>
<text text-anchor="middle" x="812.5" y="-448.5" font-family="Helvetica,sans-Serif" font-size="10.00">Movie.getMovieId</text>
</a>
</g>
</g>
<!-- Node5&#45;&gt;Node6 -->
<g id="edge5" class="edge">
<title>Node5&#45;&gt;Node6</title>
<path fill="none" stroke="midnightblue" d="M701.16,-468.34C712.12,-467.17 723.55,-465.94 734.72,-464.74"/>
<polygon fill="midnightblue" stroke="midnightblue" points="735.33,-468.2 744.9,-463.65 734.58,-461.24 735.33,-468.2"/>
</g>
<!-- Node7 -->
<g id="node7" class="node">
<title>Node7</title>
<g id="a_node7"><a xlink:href="../../d3/dd3/classcom_1_1tia_1_1bmm_1_1server_1_1movie_1_1_movie.html#a6eeb3237fadae77e1fc1d1466d02f5cb" target="_top" xlink:title=" ">
<polygon fill="white" stroke="black" points="745,-353.5 745,-383.5 880,-383.5 880,-353.5 745,-353.5"/>
<text text-anchor="start" x="753" y="-371.5" font-family="Helvetica,sans-Serif" font-size="10.00">com.tia.bmm.server.movie.</text>
<text text-anchor="middle" x="812.5" y="-360.5" font-family="Helvetica,sans-Serif" font-size="10.00">Movie.getMovieName</text>
</a>
</g>
</g>
<!-- Node5&#45;&gt;Node7 -->
<g id="edge6" class="edge">
<title>Node5&#45;&gt;Node7</title>
<path fill="none" stroke="midnightblue" d="M685.44,-460.45C692.17,-457.8 698.86,-454.82 705,-451.5 736.14,-434.69 767.59,-408.84 788.15,-390.46"/>
<polygon fill="midnightblue" stroke="midnightblue" points="790.69,-392.89 795.74,-383.58 785.98,-387.7 790.69,-392.89"/>
</g>
<!-- Node8&#45;&gt;Node5 -->
<g id="edge8" class="edge">
<title>Node8&#45;&gt;Node5</title>
<path fill="none" stroke="midnightblue" d="M526.11,-475.5C535.97,-475.5 545.98,-475.5 555.72,-475.5"/>
<polygon fill="midnightblue" stroke="midnightblue" points="555.76,-479 565.76,-475.5 555.76,-472 555.76,-479"/>
</g>
<!-- Node8&#45;&gt;Node9 -->
<g id="edge9" class="edge">
<title>Node8&#45;&gt;Node9</title>
<path fill="none" stroke="midnightblue" d="M473.05,-490.56C505.5,-505.81 555.82,-529.46 591.23,-546.1"/>
<polygon fill="midnightblue" stroke="midnightblue" points="589.8,-549.3 600.34,-550.39 592.78,-542.97 589.8,-549.3"/>
</g>
<!-- Node10 -->
<g id="node10" class="node">
<title>Node10</title>
<g id="a_node10"><a xlink:href="../../d9/ddb/classcom_1_1tia_1_1bmm_1_1server_1_1theatre_1_1_theatre.html#a079c3bcfad970bde006f602defe49fc6" target="_top" xlink:title=" ">
<polygon fill="white" stroke="black" points="564,-411.5 564,-441.5 703,-441.5 703,-411.5 564,-411.5"/>
<text text-anchor="start" x="572" y="-429.5" font-family="Helvetica,sans-Serif" font-size="10.00">com.tia.bmm.server.theatre.</text>
<text text-anchor="middle" x="633.5" y="-418.5" font-family="Helvetica,sans-Serif" font-size="10.00">Theatre.getTheatreName</text>
</a>
</g>
</g>
<!-- Node8&#45;&gt;Node10 -->
<g id="edge10" class="edge">
<title>Node8&#45;&gt;Node10</title>
<path fill="none" stroke="midnightblue" d="M499.76,-460.47C520.07,-455.27 543.01,-449.4 564.03,-444.02"/>
<polygon fill="midnightblue" stroke="midnightblue" points="565.03,-447.38 573.85,-441.51 563.3,-440.59 565.03,-447.38"/>
</g>
<!-- Node11&#45;&gt;Node10 -->
<g id="edge18" class="edge">
<title>Node11&#45;&gt;Node10</title>
<path fill="none" stroke="midnightblue" d="M514.22,-426.5C527.05,-426.5 540.45,-426.5 553.43,-426.5"/>
<polygon fill="midnightblue" stroke="midnightblue" points="553.73,-430 563.73,-426.5 553.73,-423 553.73,-430"/>
</g>
<!-- Node12 -->
<g id="node12" class="node">
<title>Node12</title>
<g id="a_node12"><a xlink:href="../../d5/da1/classcom_1_1tia_1_1bmm_1_1server_1_1address_1_1_address.html#a07eff711b146256671cc044923b429d3" target="_top" xlink:title=" ">
<polygon fill="white" stroke="black" points="562,-186.5 562,-216.5 705,-216.5 705,-186.5 562,-186.5"/>
<text text-anchor="start" x="570" y="-204.5" font-family="Helvetica,sans-Serif" font-size="10.00">com.tia.bmm.server.address.</text>
<text text-anchor="middle" x="633.5" y="-193.5" font-family="Helvetica,sans-Serif" font-size="10.00">Address.displayAddress</text>
</a>
</g>
</g>
<!-- Node11&#45;&gt;Node12 -->
<g id="edge12" class="edge">
<title>Node11&#45;&gt;Node12</title>
<path fill="none" stroke="midnightblue" d="M465.9,-411.42C483.89,-399.77 508.08,-382.46 526,-363.5 567.04,-320.09 602.36,-259.01 620.17,-225.62"/>
<polygon fill="midnightblue" stroke="midnightblue" points="623.36,-227.07 624.92,-216.59 617.17,-223.81 623.36,-227.07"/>
</g>
<!-- Node13 -->
<g id="node13" class="node">
<title>Node13</title>
<g id="a_node13"><a xlink:href="../../d5/da1/classcom_1_1tia_1_1bmm_1_1server_1_1address_1_1_address.html#af20527e485b38f9b824da440f9907011" target="_top" xlink:title=" ">
<polygon fill="white" stroke="black" points="741,-88.5 741,-118.5 884,-118.5 884,-88.5 741,-88.5"/>
<text text-anchor="start" x="749" y="-106.5" font-family="Helvetica,sans-Serif" font-size="10.00">com.tia.bmm.server.address.</text>
<text text-anchor="middle" x="812.5" y="-95.5" font-family="Helvetica,sans-Serif" font-size="10.00">Address.getCity</text>
</a>
</g>
</g>
<!-- Node12&#45;&gt;Node13 -->
<g id="edge13" class="edge">
<title>Node12&#45;&gt;Node13</title>
<path fill="none" stroke="midnightblue" d="M690.06,-186.35C695.35,-183.82 700.43,-180.89 705,-177.5 727.01,-161.2 718.99,-143.8 741,-127.5 742.86,-126.12 744.8,-124.82 746.8,-123.6"/>
<polygon fill="midnightblue" stroke="midnightblue" points="748.81,-126.49 755.94,-118.65 745.48,-120.33 748.81,-126.49"/>
</g>
<!-- Node14 -->
<g id="node14" class="node">
<title>Node14</title>
<g id="a_node14"><a xlink:href="../../d5/da1/classcom_1_1tia_1_1bmm_1_1server_1_1address_1_1_address.html#adaaefa14d2da4c3dbf4e0c2b21aaacbb" target="_top" xlink:title=" ">
<polygon fill="white" stroke="black" points="741,-284.5 741,-314.5 884,-314.5 884,-284.5 741,-284.5"/>
<text text-anchor="start" x="749" y="-302.5" font-family="Helvetica,sans-Serif" font-size="10.00">com.tia.bmm.server.address.</text>
<text text-anchor="middle" x="812.5" y="-291.5" font-family="Helvetica,sans-Serif" font-size="10.00">Address.getLandmark</text>
</a>
</g>
</g>
<!-- Node12&#45;&gt;Node14 -->
<g id="edge14" class="edge">
<title>Node12&#45;&gt;Node14</title>
<path fill="none" stroke="midnightblue" d="M679.16,-216.64C688.16,-220.73 697.23,-225.67 705,-231.5 725.21,-246.66 720.24,-261.1 741,-275.5 743.14,-276.98 745.38,-278.38 747.68,-279.7"/>
<polygon fill="midnightblue" stroke="midnightblue" points="746.38,-282.96 756.88,-284.39 749.56,-276.73 746.38,-282.96"/>
</g>
<!-- Node15 -->
<g id="node15" class="node">
<title>Node15</title>
<g id="a_node15"><a xlink:href="../../d5/da1/classcom_1_1tia_1_1bmm_1_1server_1_1address_1_1_address.html#a2ab8b5db51d4918b3ae586899e9f2966" target="_top" xlink:title=" ">
<polygon fill="white" stroke="black" points="741,-235.5 741,-265.5 884,-265.5 884,-235.5 741,-235.5"/>
<text text-anchor="start" x="749" y="-253.5" font-family="Helvetica,sans-Serif" font-size="10.00">com.tia.bmm.server.address.</text>
<text text-anchor="middle" x="812.5" y="-242.5" font-family="Helvetica,sans-Serif" font-size="10.00">Address.getPinCode</text>
</a>
</g>
</g>
<!-- Node12&#45;&gt;Node15 -->
<g id="edge15" class="edge">
<title>Node12&#45;&gt;Node15</title>
<path fill="none" stroke="midnightblue" d="M689.05,-216.6C707.47,-221.7 728.21,-227.44 747.31,-232.73"/>
<polygon fill="midnightblue" stroke="midnightblue" points="746.56,-236.15 757.13,-235.45 748.43,-229.41 746.56,-236.15"/>
</g>
<!-- Node16 -->
<g id="node16" class="node">
<title>Node16</title>
<g id="a_node16"><a xlink:href="../../d5/da1/classcom_1_1tia_1_1bmm_1_1server_1_1address_1_1_address.html#ad2ca9fb2be91212f1e621fa529b62345" target="_top" xlink:title=" ">
<polygon fill="white" stroke="black" points="741,-186.5 741,-216.5 884,-216.5 884,-186.5 741,-186.5"/>
<text text-anchor="start" x="749" y="-204.5" font-family="Helvetica,sans-Serif" font-size="10.00">com.tia.bmm.server.address.</text>
<text text-anchor="middle" x="812.5" y="-193.5" font-family="Helvetica,sans-Serif" font-size="10.00">Address.getState</text>
</a>
</g>
</g>
<!-- Node12&#45;&gt;Node16 -->
<g id="edge16" class="edge">
<title>Node12&#45;&gt;Node16</title>
<path fill="none" stroke="midnightblue" d="M705.22,-201.5C713.57,-201.5 722.14,-201.5 730.62,-201.5"/>
<polygon fill="midnightblue" stroke="midnightblue" points="730.89,-205 740.89,-201.5 730.89,-198 730.89,-205"/>
</g>
<!-- Node17 -->
<g id="node17" class="node">
<title>Node17</title>
<g id="a_node17"><a xlink:href="../../d5/da1/classcom_1_1tia_1_1bmm_1_1server_1_1address_1_1_address.html#a54c6bb58e93a72e24cbba6a929b3aed3" target="_top" xlink:title=" ">
<polygon fill="white" stroke="black" points="741,-137.5 741,-167.5 884,-167.5 884,-137.5 741,-137.5"/>
<text text-anchor="start" x="749" y="-155.5" font-family="Helvetica,sans-Serif" font-size="10.00">com.tia.bmm.server.address.</text>
<text text-anchor="middle" x="812.5" y="-144.5" font-family="Helvetica,sans-Serif" font-size="10.00">Address.getStreetNo</text>
</a>
</g>
</g>
<!-- Node12&#45;&gt;Node17 -->
<g id="edge17" class="edge">
<title>Node12&#45;&gt;Node17</title>
<path fill="none" stroke="midnightblue" d="M689.05,-186.4C707.47,-181.3 728.21,-175.56 747.31,-170.27"/>
<polygon fill="midnightblue" stroke="midnightblue" points="748.43,-173.59 757.13,-167.55 746.56,-166.85 748.43,-173.59"/>
</g>
<!-- Node19 -->
<g id="node19" class="node">
<title>Node19</title>
<g id="a_node19"><a xlink:href="../../d5/da1/classcom_1_1tia_1_1bmm_1_1server_1_1address_1_1_address.html#a30cfc0cc2cbcfe047a637fea1f6e44a1" target="_top" xlink:title=" ">
<polygon fill="white" stroke="black" points="368.5,-137.5 368.5,-167.5 511.5,-167.5 511.5,-137.5 368.5,-137.5"/>
<text text-anchor="start" x="376.5" y="-155.5" font-family="Helvetica,sans-Serif" font-size="10.00">com.tia.bmm.server.address.</text>
<text text-anchor="middle" x="440" y="-144.5" font-family="Helvetica,sans-Serif" font-size="10.00">Address.addAddress</text>
</a>
</g>
</g>
<!-- Node18&#45;&gt;Node19 -->
<g id="edge21" class="edge">
<title>Node18&#45;&gt;Node19</title>
<path fill="none" stroke="midnightblue" d="M291.59,-196.49C310.99,-190.53 333.54,-183.64 354,-177.5 361.65,-175.2 369.69,-172.81 377.64,-170.46"/>
<polygon fill="midnightblue" stroke="midnightblue" points="378.68,-173.8 387.28,-167.61 376.7,-167.09 378.68,-173.8"/>
</g>
<!-- Node20 -->
<g id="node20" class="node">
<title>Node20</title>
<g id="a_node20"><a xlink:href="../../d5/da1/classcom_1_1tia_1_1bmm_1_1server_1_1address_1_1_address.html#ab4968435414b4e23792e69dabbaa72ac" target="_top" xlink:title=" ">
<polygon fill="white" stroke="black" points="562,-137.5 562,-167.5 705,-167.5 705,-137.5 562,-137.5"/>
<text text-anchor="start" x="570" y="-155.5" font-family="Helvetica,sans-Serif" font-size="10.00">com.tia.bmm.server.address.</text>
<text text-anchor="middle" x="633.5" y="-144.5" font-family="Helvetica,sans-Serif" font-size="10.00">Address.Address</text>
</a>
</g>
</g>
<!-- Node19&#45;&gt;Node20 -->
<g id="edge22" class="edge">
<title>Node19&#45;&gt;Node20</title>
<path fill="none" stroke="midnightblue" d="M511.76,-152.5C524.75,-152.5 538.4,-152.5 551.66,-152.5"/>
<polygon fill="midnightblue" stroke="midnightblue" points="551.71,-156 561.71,-152.5 551.71,-149 551.71,-156"/>
</g>
<!-- Node22 -->
<g id="node22" class="node">
<title>Node22</title>
<g id="a_node22"><a xlink:href="../../d4/d9e/classcom_1_1tia_1_1bmm_1_1server_1_1user_1_1_user_list.html#a66e9eaef6c276b0a39299d918a92b1c1" target="_top" xlink:title=" ">
<polygon fill="white" stroke="black" points="376.5,-88.5 376.5,-118.5 503.5,-118.5 503.5,-88.5 376.5,-88.5"/>
<text text-anchor="start" x="384.5" y="-106.5" font-family="Helvetica,sans-Serif" font-size="10.00">com.tia.bmm.server.user.</text>
<text text-anchor="middle" x="440" y="-95.5" font-family="Helvetica,sans-Serif" font-size="10.00">UserList.getUl</text>
</a>
</g>
</g>
<!-- Node21&#45;&gt;Node22 -->
<g id="edge24" class="edge">
<title>Node21&#45;&gt;Node22</title>
<path fill="none" stroke="midnightblue" d="M289.62,-147.46C309.43,-141.15 332.8,-133.83 354,-127.5 360.61,-125.52 367.53,-123.5 374.44,-121.51"/>
<polygon fill="midnightblue" stroke="midnightblue" points="375.87,-124.74 384.52,-118.62 373.94,-118.01 375.87,-124.74"/>
</g>
<!-- Node23&#45;&gt;Node6 -->
<g id="edge29" class="edge">
<title>Node23&#45;&gt;Node6</title>
<path fill="none" stroke="midnightblue" d="M309.63,-285.68C312.58,-287.42 315.39,-289.35 318,-291.5 345.59,-314.28 324.65,-343.04 354,-363.5 418.38,-408.39 629.8,-380.06 705,-402.5 731.18,-410.31 758.64,-424.4 779.11,-436.22"/>
<polygon fill="midnightblue" stroke="midnightblue" points="777.61,-439.4 788,-441.47 781.17,-433.37 777.61,-439.4"/>
</g>
<!-- Node23&#45;&gt;Node7 -->
<g id="edge30" class="edge">
<title>Node23&#45;&gt;Node7</title>
<path fill="none" stroke="midnightblue" d="M309.6,-267.01C324.23,-266.38 339.63,-265.82 354,-265.5 430.43,-263.78 450.7,-252.33 526,-265.5 617.08,-281.43 717.43,-323.91 771.55,-349.06"/>
<polygon fill="midnightblue" stroke="midnightblue" points="770.25,-352.32 780.79,-353.4 773.22,-345.98 770.25,-352.32"/>
</g>
<!-- Node24 -->
<g id="node24" class="node">
<title>Node24</title>
<g id="a_node24"><a xlink:href="../../da/dca/classcom_1_1tia_1_1bmm_1_1server_1_1theatre_1_1_theatre_list.html#a35e07a87e4d839ea581f760b53bd68d7" target="_top" xlink:title=" ">
<polygon fill="white" stroke="black" points="370.5,-274.5 370.5,-304.5 509.5,-304.5 509.5,-274.5 370.5,-274.5"/>
<text text-anchor="start" x="378.5" y="-292.5" font-family="Helvetica,sans-Serif" font-size="10.00">com.tia.bmm.server.theatre.</text>
<text text-anchor="middle" x="440" y="-281.5" font-family="Helvetica,sans-Serif" font-size="10.00">TheatreList.displayTheatre</text>
</a>
</g>
</g>
<!-- Node23&#45;&gt;Node24 -->
<g id="edge26" class="edge">
<title>Node23&#45;&gt;Node24</title>
<path fill="none" stroke="midnightblue" d="M309.63,-276.96C325.81,-278.53 343.25,-280.22 359.94,-281.84"/>
<polygon fill="midnightblue" stroke="midnightblue" points="359.93,-285.35 370.22,-282.83 360.6,-278.38 359.93,-285.35"/>
</g>
<!-- Node25 -->
<g id="node25" class="node">
<title>Node25</title>
<g id="a_node25"><a xlink:href="../../d3/dd3/classcom_1_1tia_1_1bmm_1_1server_1_1movie_1_1_movie.html#a4aa8a4b90a046a7c0ec374308270ae41" target="_top" xlink:title=" ">
<polygon fill="white" stroke="black" points="372.5,-186.5 372.5,-216.5 507.5,-216.5 507.5,-186.5 372.5,-186.5"/>
<text text-anchor="start" x="380.5" y="-204.5" font-family="Helvetica,sans-Serif" font-size="10.00">com.tia.bmm.server.movie.</text>
<text text-anchor="middle" x="440" y="-193.5" font-family="Helvetica,sans-Serif" font-size="10.00">Movie.getMovieType</text>
</a>
</g>
</g>
<!-- Node23&#45;&gt;Node25 -->
<g id="edge31" class="edge">
<title>Node23&#45;&gt;Node25</title>
<path fill="none" stroke="midnightblue" d="M286.01,-255.36C315.63,-244.93 355.15,-231.02 386.6,-219.95"/>
<polygon fill="midnightblue" stroke="midnightblue" points="387.82,-223.23 396.09,-216.61 385.49,-216.63 387.82,-223.23"/>
</g>
<!-- Node26 -->
<g id="node26" class="node">
<title>Node26</title>
<g id="a_node26"><a xlink:href="../../d3/dd3/classcom_1_1tia_1_1bmm_1_1server_1_1movie_1_1_movie.html#a14bfec7e511ab221f432983ad47b2846" target="_top" xlink:title=" ">
<polygon fill="white" stroke="black" points="372.5,-323.5 372.5,-353.5 507.5,-353.5 507.5,-323.5 372.5,-323.5"/>
<text text-anchor="start" x="380.5" y="-341.5" font-family="Helvetica,sans-Serif" font-size="10.00">com.tia.bmm.server.movie.</text>
<text text-anchor="middle" x="440" y="-330.5" font-family="Helvetica,sans-Serif" font-size="10.00">Movie.getRating</text>
</a>
</g>
</g>
<!-- Node23&#45;&gt;Node26 -->
<g id="edge32" class="edge">
<title>Node23&#45;&gt;Node26</title>
<path fill="none" stroke="midnightblue" d="M278.15,-285.5C299.81,-294.48 328.28,-305.8 354,-314.5 360.01,-316.53 366.29,-318.53 372.6,-320.46"/>
<polygon fill="midnightblue" stroke="midnightblue" points="371.93,-323.91 382.51,-323.42 373.93,-317.21 371.93,-323.91"/>
</g>
<!-- Node24&#45;&gt;Node10 -->
<g id="edge28" class="edge">
<title>Node24&#45;&gt;Node10</title>
<path fill="none" stroke="midnightblue" d="M505.68,-304.57C512.77,-307.37 519.7,-310.65 526,-314.5 563.89,-337.65 597.3,-377.67 616.19,-403.08"/>
<polygon fill="midnightblue" stroke="midnightblue" points="613.53,-405.38 622.24,-411.4 619.19,-401.26 613.53,-405.38"/>
</g>
<!-- Node24&#45;&gt;Node12 -->
<g id="edge27" class="edge">
<title>Node24&#45;&gt;Node12</title>
<path fill="none" stroke="midnightblue" d="M473.92,-274.37C506.08,-259.59 555.17,-237.04 590.21,-220.94"/>
<polygon fill="midnightblue" stroke="midnightblue" points="592.06,-223.93 599.69,-216.58 589.14,-217.57 592.06,-223.93"/>
</g>
<!-- Node27&#45;&gt;Node22 -->
<g id="edge36" class="edge">
<title>Node27&#45;&gt;Node22</title>
<path fill="none" stroke="midnightblue" d="M305.55,-110.31C324.83,-109.33 346.21,-108.23 366.11,-107.22"/>
<polygon fill="midnightblue" stroke="midnightblue" points="366.56,-110.7 376.37,-106.7 366.2,-103.71 366.56,-110.7"/>
</g>
<!-- Node28 -->
<g id="node28" class="node">
<title>Node28</title>
<g id="a_node28"><a xlink:href="../../d9/d2e/classcom_1_1tia_1_1bmm_1_1server_1_1user_1_1_user.html#a6f53cfb900f83910c007a966bdd618b6" target="_top" xlink:title=" ">
<polygon fill="white" stroke="black" points="376.5,-39.5 376.5,-69.5 503.5,-69.5 503.5,-39.5 376.5,-39.5"/>
<text text-anchor="start" x="384.5" y="-57.5" font-family="Helvetica,sans-Serif" font-size="10.00">com.tia.bmm.server.user.</text>
<text text-anchor="middle" x="440" y="-46.5" font-family="Helvetica,sans-Serif" font-size="10.00">User.getEmailId</text>
</a>
</g>
</g>
<!-- Node27&#45;&gt;Node28 -->
<g id="edge35" class="edge">
<title>Node27&#45;&gt;Node28</title>
<path fill="none" stroke="midnightblue" d="M289.62,-98.46C309.43,-92.15 332.8,-84.83 354,-78.5 360.61,-76.52 367.53,-74.5 374.44,-72.51"/>
<polygon fill="midnightblue" stroke="midnightblue" points="375.87,-75.74 384.52,-69.62 373.94,-69.01 375.87,-75.74"/>
</g>
</g>
</svg>
