<?xml version="1.0" encoding="UTF-8" standalone="no"?>
<!DOCTYPE svg PUBLIC "-//W3C//DTD SVG 1.1//EN"
 "http://www.w3.org/Graphics/SVG/1.1/DTD/svg11.dtd">
<!-- Generated by graphviz version 2.43.0 (0)
 -->
<!-- Title: com.tia.bmm.server.movie.MovieList Pages: 1 -->
<svg width="254pt" height="117pt"
 viewBox="0.00 0.00 253.50 117.00" xmlns="http://www.w3.org/2000/svg" xmlns:xlink="http://www.w3.org/1999/xlink">
<g id="graph0" class="graph" transform="scale(1 1) rotate(0) translate(4 113)">
<title>com.tia.bmm.server.movie.MovieList</title>
<polygon fill="white" stroke="transparent" points="-4,4 -4,-113 249.5,-113 249.5,4 -4,4"/>
<!-- Node1 -->
<g id="node1" class="node">
<title>Node1</title>
<g id="a_node1"><a xlink:title=" ">
<polygon fill="#bfbfbf" stroke="black" points="32,-0.5 32,-30.5 167,-30.5 167,-0.5 32,-0.5"/>
<text text-anchor="start" x="40" y="-18.5" font-family="Helvetica,sans-Serif" font-size="10.00">com.tia.bmm.server.movie.</text>
<text text-anchor="middle" x="99.5" y="-7.5" font-family="Helvetica,sans-Serif" font-size="10.00">MovieList</text>
</a>
</g>
</g>
<!-- Node2 -->
<g id="node2" class="node">
<title>Node2</title>
<g id="a_node2"><a xlink:title=" ">
<polygon fill="white" stroke="#bfbfbf" points="0,-84 0,-103 67,-103 67,-84 0,-84"/>
<text text-anchor="middle" x="33.5" y="-91" font-family="Helvetica,sans-Serif" font-size="10.00">Serializable</text>
</a>
</g>
</g>
<!-- Node2&#45;&gt;Node1 -->
<g id="edge1" class="edge">
<title>Node2&#45;&gt;Node1</title>
<path fill="none" stroke="midnightblue" d="M47.71,-76.14C59.51,-62.55 76.12,-43.42 87.32,-30.52"/>
<polygon fill="midnightblue" stroke="midnightblue" points="44.99,-73.94 41.07,-83.78 50.27,-78.53 44.99,-73.94"/>
</g>
<!-- Node3 -->
<g id="node3" class="node">
<title>Node3</title>
<g id="a_node3"><a xlink:title=" ">
<polygon fill="white" stroke="#bfbfbf" points="85.5,-78.5 85.5,-108.5 245.5,-108.5 245.5,-78.5 85.5,-78.5"/>
<text text-anchor="start" x="93.5" y="-96.5" font-family="Helvetica,sans-Serif" font-size="10.00">List&lt; com.tia.bmm.server.movie.</text>
<text text-anchor="middle" x="165.5" y="-85.5" font-family="Helvetica,sans-Serif" font-size="10.00">Movie &gt;</text>
</a>
</g>
</g>
<!-- Node3&#45;&gt;Node1 -->
<g id="edge2" class="edge">
<title>Node3&#45;&gt;Node1</title>
<path fill="none" stroke="#9a32cd" stroke-dasharray="5,2" d="M146.23,-70.31C135.13,-57.53 121.52,-41.86 111.86,-30.73"/>
<polygon fill="#9a32cd" stroke="#9a32cd" points="143.89,-72.95 153.09,-78.2 149.17,-68.36 143.89,-72.95"/>
<text text-anchor="middle" x="142.5" y="-52" font-family="Helvetica,sans-Serif" font-size="10.00"> Ml</text>
</g>
</g>
</svg>
