<?xml version="1.0" encoding="UTF-8" standalone="no"?>
<!DOCTYPE svg PUBLIC "-//W3C//DTD SVG 1.1//EN"
 "http://www.w3.org/Graphics/SVG/1.1/DTD/svg11.dtd">
<!-- Generated by graphviz version 2.43.0 (0)
 -->
<!-- Title: com.tia.bmm.server.theatre.Theatre Pages: 1 -->
<svg width="330pt" height="117pt"
 viewBox="0.00 0.00 329.50 117.00" xmlns="http://www.w3.org/2000/svg" xmlns:xlink="http://www.w3.org/1999/xlink">
<g id="graph0" class="graph" transform="scale(1 1) rotate(0) translate(4 113)">
<title>com.tia.bmm.server.theatre.Theatre</title>
<polygon fill="white" stroke="transparent" points="-4,4 -4,-113 325.5,-113 325.5,4 -4,4"/>
<!-- Node1 -->
<g id="node1" class="node">
<title>Node1</title>
<g id="a_node1"><a xlink:title=" ">
<polygon fill="#bfbfbf" stroke="black" points="95.5,-0.5 95.5,-30.5 234.5,-30.5 234.5,-0.5 95.5,-0.5"/>
<text text-anchor="start" x="103.5" y="-18.5" font-family="Helvetica,sans-Serif" font-size="10.00">com.tia.bmm.server.theatre.</text>
<text text-anchor="middle" x="165" y="-7.5" font-family="Helvetica,sans-Serif" font-size="10.00">Theatre</text>
</a>
</g>
</g>
<!-- Node2 -->
<g id="node2" class="node">
<title>Node2</title>
<g id="a_node2"><a xlink:title=" ">
<polygon fill="white" stroke="#bfbfbf" points="0,-78.5 0,-108.5 160,-108.5 160,-78.5 0,-78.5"/>
<text text-anchor="start" x="8" y="-96.5" font-family="Helvetica,sans-Serif" font-size="10.00">List&lt; com.tia.bmm.server.movie.</text>
<text text-anchor="middle" x="80" y="-85.5" font-family="Helvetica,sans-Serif" font-size="10.00">Movie &gt;</text>
</a>
</g>
</g>
<!-- Node2&#45;&gt;Node1 -->
<g id="edge1" class="edge">
<title>Node2&#45;&gt;Node1</title>
<path fill="none" stroke="#9a32cd" stroke-dasharray="5,2" d="M103.61,-71.39C118.1,-58.43 136.28,-42.18 149.08,-30.73"/>
<polygon fill="#9a32cd" stroke="#9a32cd" points="101.11,-68.93 95.99,-78.2 105.78,-74.15 101.11,-68.93"/>
<text text-anchor="middle" x="145.5" y="-52" font-family="Helvetica,sans-Serif" font-size="10.00"> movies</text>
</g>
<!-- Node3 -->
<g id="node3" class="node">
<title>Node3</title>
<g id="a_node3"><a xlink:href="../../d5/da1/classcom_1_1tia_1_1bmm_1_1server_1_1address_1_1_address.html" target="_top" xlink:title=" ">
<polygon fill="white" stroke="black" points="178.5,-78.5 178.5,-108.5 321.5,-108.5 321.5,-78.5 178.5,-78.5"/>
<text text-anchor="start" x="186.5" y="-96.5" font-family="Helvetica,sans-Serif" font-size="10.00">com.tia.bmm.server.address.</text>
<text text-anchor="middle" x="250" y="-85.5" font-family="Helvetica,sans-Serif" font-size="10.00">Address</text>
</a>
</g>
</g>
<!-- Node3&#45;&gt;Node1 -->
<g id="edge2" class="edge">
<title>Node3&#45;&gt;Node1</title>
<path fill="none" stroke="#9a32cd" stroke-dasharray="5,2" d="M226.39,-71.39C211.9,-58.43 193.72,-42.18 180.92,-30.73"/>
<polygon fill="#9a32cd" stroke="#9a32cd" points="224.22,-74.15 234.01,-78.2 228.89,-68.93 224.22,-74.15"/>
<text text-anchor="middle" x="231" y="-52" font-family="Helvetica,sans-Serif" font-size="10.00"> address</text>
</g>
</g>
</svg>
