<?xml version="1.0" encoding="UTF-8" standalone="no"?>
<!DOCTYPE svg PUBLIC "-//W3C//DTD SVG 1.1//EN"
 "http://www.w3.org/Graphics/SVG/1.1/DTD/svg11.dtd">
<!-- Generated by graphviz version 2.43.0 (0)
 -->
<!-- Title: com.tia.bmm.server.booking.MyServer.chatWithClient Pages: 1 -->
<!--zoomable 725 -->
<svg id="main" version="1.1" xmlns="http://www.w3.org/2000/svg" xmlns:xlink="http://www.w3.org/1999/xlink" xml:space="preserve" onload="init(evt)">
<style type="text/css"><![CDATA[
.edge:hover path { stroke: red; }
.edge:hover polygon { stroke: red; fill: red; }
]]></style>
<script type="text/javascript"><![CDATA[
var edges = document.getElementsByTagName('g');
if (edges && edges.length) {
  for (var i=0;i<edges.length;i++) {
    if (edges[i].id.substr(0,4)=='edge') {
      edges[i].setAttribute('class','edge');
    }
  }
}
]]></script>
        <defs>
                <circle id="rim" cx="0" cy="0" r="7"/>
                <circle id="rim2" cx="0" cy="0" r="3.5"/>
                <g id="zoomPlus">
                        <use xlink:href="#rim" fill="#404040">
                                <set attributeName="fill" to="#808080" begin="zoomplus.mouseover" end="zoomplus.mouseout"/>
                        </use>
                        <path d="M-4,0h8M0,-4v8" fill="none" stroke="white" stroke-width="1.5" pointer-events="none"/>
                </g>
                <g id="zoomMin">
                        <use xlink:href="#rim" fill="#404040">
                                <set attributeName="fill" to="#808080" begin="zoomminus.mouseover" end="zoomminus.mouseout"/>
                        </use>
                        <path d="M-4,0h8" fill="none" stroke="white" stroke-width="1.5" pointer-events="none"/>
                </g>
                <g id="dirArrow">
                        <path fill="none" stroke="white" stroke-width="1.5" d="M0,-3.0v7 M-2.5,-0.5L0,-3.0L2.5,-0.5"/>
                </g>
               <g id="resetDef">
                       <use xlink:href="#rim2" fill="#404040">
                               <set attributeName="fill" to="#808080" begin="reset.mouseover" end="reset.mouseout"/>
                       </use>
               </g>
        </defs>

<script type="text/javascript">
var viewWidth = 509;
var viewHeight = 725;
var sectionId = 'dynsection-0';
</script>
<script xlink:href="../../svgpan.js"/>
<svg id="graph" class="graph">
<g id="viewport">
<title>com.tia.bmm.server.booking.MyServer.chatWithClient</title>
<polygon fill="white" stroke="transparent" points="-4,4 -4,-721 505,-721 505,4 -4,4"/>
<!-- Node1 -->
<g id="node1" class="node">
<title>Node1</title>
<g id="a_node1"><a xlink:title=" ">
<polygon fill="#bfbfbf" stroke="black" points="0,-367.5 0,-397.5 143,-397.5 143,-367.5 0,-367.5"/>
<text text-anchor="start" x="8" y="-385.5" font-family="Helvetica,sans-Serif" font-size="10.00">com.tia.bmm.server.booking.</text>
<text text-anchor="middle" x="71.5" y="-374.5" font-family="Helvetica,sans-Serif" font-size="10.00">MyServer.chatWithClient</text>
</a>
</g>
</g>
<!-- Node2 -->
<g id="node2" class="node">
<title>Node2</title>
<g id="a_node2"><a xlink:href="../../d9/d2e/classcom_1_1tia_1_1bmm_1_1server_1_1user_1_1_user.html#a6f53cfb900f83910c007a966bdd618b6" target="_top" xlink:title=" ">
<polygon fill="white" stroke="black" points="187,-392.5 187,-422.5 314,-422.5 314,-392.5 187,-392.5"/>
<text text-anchor="start" x="195" y="-410.5" font-family="Helvetica,sans-Serif" font-size="10.00">com.tia.bmm.server.user.</text>
<text text-anchor="middle" x="250.5" y="-399.5" font-family="Helvetica,sans-Serif" font-size="10.00">User.getEmailId</text>
</a>
</g>
</g>
<!-- Node1&#45;&gt;Node2 -->
<g id="edge1" class="edge">
<title>Node1&#45;&gt;Node2</title>
<path fill="none" stroke="midnightblue" d="M143.22,-392.49C154.28,-394.05 165.72,-395.67 176.82,-397.23"/>
<polygon fill="midnightblue" stroke="midnightblue" points="176.51,-400.73 186.9,-398.66 177.49,-393.79 176.51,-400.73"/>
</g>
<!-- Node3 -->
<g id="node3" class="node">
<title>Node3</title>
<g id="a_node3"><a xlink:href="../../da/d57/classcom_1_1tia_1_1bmm_1_1server_1_1booking_1_1_booking.html#a447864da63969714d2e23e8329af699a" target="_top" xlink:title=" ">
<polygon fill="white" stroke="black" points="179,-343.5 179,-373.5 322,-373.5 322,-343.5 179,-343.5"/>
<text text-anchor="start" x="187" y="-361.5" font-family="Helvetica,sans-Serif" font-size="10.00">com.tia.bmm.server.booking.</text>
<text text-anchor="middle" x="250.5" y="-350.5" font-family="Helvetica,sans-Serif" font-size="10.00">Booking.handleBooking</text>
</a>
</g>
</g>
<!-- Node1&#45;&gt;Node3 -->
<g id="edge2" class="edge">
<title>Node1&#45;&gt;Node3</title>
<path fill="none" stroke="midnightblue" d="M143.22,-372.91C151.66,-371.77 160.33,-370.59 168.9,-369.43"/>
<polygon fill="midnightblue" stroke="midnightblue" points="169.46,-372.89 178.89,-368.07 168.51,-365.95 169.46,-372.89"/>
</g>
<!-- Node4 -->
<g id="node4" class="node">
<title>Node4</title>
<g id="a_node4"><a xlink:href="../../d5/da1/classcom_1_1tia_1_1bmm_1_1server_1_1address_1_1_address.html#af20527e485b38f9b824da440f9907011" target="_top" xlink:title=" ">
<polygon fill="white" stroke="black" points="358,-686.5 358,-716.5 501,-716.5 501,-686.5 358,-686.5"/>
<text text-anchor="start" x="366" y="-704.5" font-family="Helvetica,sans-Serif" font-size="10.00">com.tia.bmm.server.address.</text>
<text text-anchor="middle" x="429.5" y="-693.5" font-family="Helvetica,sans-Serif" font-size="10.00">Address.getCity</text>
</a>
</g>
</g>
<!-- Node3&#45;&gt;Node4 -->
<g id="edge3" class="edge">
<title>Node3&#45;&gt;Node4</title>
<path fill="none" stroke="midnightblue" d="M311.08,-373.64C315.19,-376.39 318.91,-379.65 322,-383.5 404.36,-486.2 274.99,-575.33 358,-677.5 358.61,-678.25 359.24,-678.97 359.89,-679.67"/>
<polygon fill="midnightblue" stroke="midnightblue" points="357.79,-682.48 367.65,-686.36 362.36,-677.18 357.79,-682.48"/>
</g>
<!-- Node5 -->
<g id="node5" class="node">
<title>Node5</title>
<g id="a_node5"><a xlink:href="../../d5/da1/classcom_1_1tia_1_1bmm_1_1server_1_1address_1_1_address.html#adaaefa14d2da4c3dbf4e0c2b21aaacbb" target="_top" xlink:title=" ">
<polygon fill="white" stroke="black" points="358,-637.5 358,-667.5 501,-667.5 501,-637.5 358,-637.5"/>
<text text-anchor="start" x="366" y="-655.5" font-family="Helvetica,sans-Serif" font-size="10.00">com.tia.bmm.server.address.</text>
<text text-anchor="middle" x="429.5" y="-644.5" font-family="Helvetica,sans-Serif" font-size="10.00">Address.getLandmark</text>
</a>
</g>
</g>
<!-- Node3&#45;&gt;Node5 -->
<g id="edge4" class="edge">
<title>Node3&#45;&gt;Node5</title>
<path fill="none" stroke="midnightblue" d="M310.66,-373.5C314.91,-376.29 318.78,-379.59 322,-383.5 391.88,-468.52 287.58,-543.92 358,-628.5 358.72,-629.37 359.48,-630.21 360.27,-631.02"/>
<polygon fill="midnightblue" stroke="midnightblue" points="358.14,-633.8 368.07,-637.5 362.61,-628.41 358.14,-633.8"/>
</g>
<!-- Node6 -->
<g id="node6" class="node">
<title>Node6</title>
<g id="a_node6"><a xlink:href="../../d3/dd3/classcom_1_1tia_1_1bmm_1_1server_1_1movie_1_1_movie.html#ad7a45b31dd418b191289f13e68d45096" target="_top" xlink:title=" ">
<polygon fill="white" stroke="black" points="362,-588.5 362,-618.5 497,-618.5 497,-588.5 362,-588.5"/>
<text text-anchor="start" x="370" y="-606.5" font-family="Helvetica,sans-Serif" font-size="10.00">com.tia.bmm.server.movie.</text>
<text text-anchor="middle" x="429.5" y="-595.5" font-family="Helvetica,sans-Serif" font-size="10.00">Movie.getMovieId</text>
</a>
</g>
</g>
<!-- Node3&#45;&gt;Node6 -->
<g id="edge5" class="edge">
<title>Node3&#45;&gt;Node6</title>
<path fill="none" stroke="midnightblue" d="M310.51,-373.63C314.79,-376.39 318.71,-379.65 322,-383.5 379.45,-450.91 300.12,-512.46 358,-579.5 358.74,-580.36 359.51,-581.18 360.31,-581.98"/>
<polygon fill="midnightblue" stroke="midnightblue" points="358.23,-584.8 368.2,-588.38 362.64,-579.36 358.23,-584.8"/>
</g>
<!-- Node7 -->
<g id="node7" class="node">
<title>Node7</title>
<g id="a_node7"><a xlink:href="../../d3/dd3/classcom_1_1tia_1_1bmm_1_1server_1_1movie_1_1_movie.html#a6eeb3237fadae77e1fc1d1466d02f5cb" target="_top" xlink:title=" ">
<polygon fill="white" stroke="black" points="362,-539.5 362,-569.5 497,-569.5 497,-539.5 362,-539.5"/>
<text text-anchor="start" x="370" y="-557.5" font-family="Helvetica,sans-Serif" font-size="10.00">com.tia.bmm.server.movie.</text>
<text text-anchor="middle" x="429.5" y="-546.5" font-family="Helvetica,sans-Serif" font-size="10.00">Movie.getMovieName</text>
</a>
</g>
</g>
<!-- Node3&#45;&gt;Node7 -->
<g id="edge6" class="edge">
<title>Node3&#45;&gt;Node7</title>
<path fill="none" stroke="midnightblue" d="M309.93,-373.63C314.4,-376.39 318.52,-379.65 322,-383.5 367.11,-433.39 312.57,-480.89 358,-530.5 358.88,-531.47 359.81,-532.39 360.77,-533.28"/>
<polygon fill="midnightblue" stroke="midnightblue" points="358.69,-536.1 368.75,-539.4 362.94,-530.54 358.69,-536.1"/>
</g>
<!-- Node8 -->
<g id="node8" class="node">
<title>Node8</title>
<g id="a_node8"><a xlink:href="../../d9/ddb/classcom_1_1tia_1_1bmm_1_1server_1_1theatre_1_1_theatre.html#a7d2e896d0907035193e11e53d6ec58eb" target="_top" xlink:title=" ">
<polygon fill="white" stroke="black" points="360,-490.5 360,-520.5 499,-520.5 499,-490.5 360,-490.5"/>
<text text-anchor="start" x="368" y="-508.5" font-family="Helvetica,sans-Serif" font-size="10.00">com.tia.bmm.server.theatre.</text>
<text text-anchor="middle" x="429.5" y="-497.5" font-family="Helvetica,sans-Serif" font-size="10.00">Theatre.getMovies</text>
</a>
</g>
</g>
<!-- Node3&#45;&gt;Node8 -->
<g id="edge7" class="edge">
<title>Node3&#45;&gt;Node8</title>
<path fill="none" stroke="midnightblue" d="M308.8,-373.66C313.62,-376.42 318.12,-379.67 322,-383.5 355,-416.13 324.8,-449.08 358,-481.5 359.1,-482.57 360.25,-483.6 361.44,-484.58"/>
<polygon fill="midnightblue" stroke="midnightblue" points="359.63,-487.58 369.85,-490.4 363.62,-481.83 359.63,-487.58"/>
</g>
<!-- Node9 -->
<g id="node9" class="node">
<title>Node9</title>
<g id="a_node9"><a xlink:href="../../d3/dd3/classcom_1_1tia_1_1bmm_1_1server_1_1movie_1_1_movie.html#a4aa8a4b90a046a7c0ec374308270ae41" target="_top" xlink:title=" ">
<polygon fill="white" stroke="black" points="362,-441.5 362,-471.5 497,-471.5 497,-441.5 362,-441.5"/>
<text text-anchor="start" x="370" y="-459.5" font-family="Helvetica,sans-Serif" font-size="10.00">com.tia.bmm.server.movie.</text>
<text text-anchor="middle" x="429.5" y="-448.5" font-family="Helvetica,sans-Serif" font-size="10.00">Movie.getMovieType</text>
</a>
</g>
</g>
<!-- Node3&#45;&gt;Node9 -->
<g id="edge8" class="edge">
<title>Node3&#45;&gt;Node9</title>
<path fill="none" stroke="midnightblue" d="M305.22,-373.66C311.16,-376.45 316.89,-379.71 322,-383.5 343.69,-399.62 336.21,-416.52 358,-432.5 360.05,-434.01 362.21,-435.42 364.43,-436.75"/>
<polygon fill="midnightblue" stroke="midnightblue" points="362.86,-439.88 373.33,-441.48 366.14,-433.69 362.86,-439.88"/>
</g>
<!-- Node10 -->
<g id="node10" class="node">
<title>Node10</title>
<g id="a_node10"><a xlink:href="../../d5/da1/classcom_1_1tia_1_1bmm_1_1server_1_1address_1_1_address.html#a2ab8b5db51d4918b3ae586899e9f2966" target="_top" xlink:title=" ">
<polygon fill="white" stroke="black" points="358,-392.5 358,-422.5 501,-422.5 501,-392.5 358,-392.5"/>
<text text-anchor="start" x="366" y="-410.5" font-family="Helvetica,sans-Serif" font-size="10.00">com.tia.bmm.server.address.</text>
<text text-anchor="middle" x="429.5" y="-399.5" font-family="Helvetica,sans-Serif" font-size="10.00">Address.getPinCode</text>
</a>
</g>
</g>
<!-- Node3&#45;&gt;Node10 -->
<g id="edge9" class="edge">
<title>Node3&#45;&gt;Node10</title>
<path fill="none" stroke="midnightblue" d="M306.05,-373.6C324.47,-378.7 345.21,-384.44 364.31,-389.73"/>
<polygon fill="midnightblue" stroke="midnightblue" points="363.56,-393.15 374.13,-392.45 365.43,-386.41 363.56,-393.15"/>
</g>
<!-- Node11 -->
<g id="node11" class="node">
<title>Node11</title>
<g id="a_node11"><a xlink:href="../../d3/dd3/classcom_1_1tia_1_1bmm_1_1server_1_1movie_1_1_movie.html#a14bfec7e511ab221f432983ad47b2846" target="_top" xlink:title=" ">
<polygon fill="white" stroke="black" points="362,-343.5 362,-373.5 497,-373.5 497,-343.5 362,-343.5"/>
<text text-anchor="start" x="370" y="-361.5" font-family="Helvetica,sans-Serif" font-size="10.00">com.tia.bmm.server.movie.</text>
<text text-anchor="middle" x="429.5" y="-350.5" font-family="Helvetica,sans-Serif" font-size="10.00">Movie.getRating</text>
</a>
</g>
</g>
<!-- Node3&#45;&gt;Node11 -->
<g id="edge10" class="edge">
<title>Node3&#45;&gt;Node11</title>
<path fill="none" stroke="midnightblue" d="M322.22,-358.5C331.94,-358.5 341.96,-358.5 351.78,-358.5"/>
<polygon fill="midnightblue" stroke="midnightblue" points="351.92,-362 361.92,-358.5 351.92,-355 351.92,-362"/>
</g>
<!-- Node12 -->
<g id="node12" class="node">
<title>Node12</title>
<g id="a_node12"><a xlink:href="../../d0/d85/classcom_1_1tia_1_1bmm_1_1server_1_1movie_1_1_seat.html#aab350484da0d222fc9ddc224e998896d" target="_top" xlink:title=" ">
<polygon fill="white" stroke="black" points="362,-294.5 362,-324.5 497,-324.5 497,-294.5 362,-294.5"/>
<text text-anchor="start" x="370" y="-312.5" font-family="Helvetica,sans-Serif" font-size="10.00">com.tia.bmm.server.movie.</text>
<text text-anchor="middle" x="429.5" y="-301.5" font-family="Helvetica,sans-Serif" font-size="10.00">Seat.getSeatNo</text>
</a>
</g>
</g>
<!-- Node3&#45;&gt;Node12 -->
<g id="edge11" class="edge">
<title>Node3&#45;&gt;Node12</title>
<path fill="none" stroke="midnightblue" d="M306.05,-343.4C324.47,-338.3 345.21,-332.56 364.31,-327.27"/>
<polygon fill="midnightblue" stroke="midnightblue" points="365.43,-330.59 374.13,-324.55 363.56,-323.85 365.43,-330.59"/>
</g>
<!-- Node13 -->
<g id="node13" class="node">
<title>Node13</title>
<g id="a_node13"><a xlink:href="../../d0/d85/classcom_1_1tia_1_1bmm_1_1server_1_1movie_1_1_seat.html#a555824e84b1308164084d0730a166420" target="_top" xlink:title=" ">
<polygon fill="white" stroke="black" points="362,-245.5 362,-275.5 497,-275.5 497,-245.5 362,-245.5"/>
<text text-anchor="start" x="370" y="-263.5" font-family="Helvetica,sans-Serif" font-size="10.00">com.tia.bmm.server.movie.</text>
<text text-anchor="middle" x="429.5" y="-252.5" font-family="Helvetica,sans-Serif" font-size="10.00">Seat.getSeatStatus</text>
</a>
</g>
</g>
<!-- Node3&#45;&gt;Node13 -->
<g id="edge12" class="edge">
<title>Node3&#45;&gt;Node13</title>
<path fill="none" stroke="midnightblue" d="M270.18,-343.45C290.74,-327.45 325.24,-302.18 358,-285.5 362.26,-283.33 366.75,-281.27 371.32,-279.33"/>
<polygon fill="midnightblue" stroke="midnightblue" points="372.8,-282.51 380.76,-275.52 370.18,-276.02 372.8,-282.51"/>
</g>
<!-- Node14 -->
<g id="node14" class="node">
<title>Node14</title>
<g id="a_node14"><a xlink:href="../../d3/dd3/classcom_1_1tia_1_1bmm_1_1server_1_1movie_1_1_movie.html#ac3f2a20666529336a10d82af701273c3" target="_top" xlink:title=" ">
<polygon fill="white" stroke="black" points="362,-196.5 362,-226.5 497,-226.5 497,-196.5 362,-196.5"/>
<text text-anchor="start" x="370" y="-214.5" font-family="Helvetica,sans-Serif" font-size="10.00">com.tia.bmm.server.movie.</text>
<text text-anchor="middle" x="429.5" y="-203.5" font-family="Helvetica,sans-Serif" font-size="10.00">Movie.getShowAtFour</text>
</a>
</g>
</g>
<!-- Node3&#45;&gt;Node14 -->
<g id="edge13" class="edge">
<title>Node3&#45;&gt;Node14</title>
<path fill="none" stroke="midnightblue" d="M261.06,-343.13C277.73,-317.53 314.52,-266.05 358,-236.5 360.88,-234.54 363.93,-232.72 367.08,-231.03"/>
<polygon fill="midnightblue" stroke="midnightblue" points="368.73,-234.12 376.18,-226.59 365.66,-227.83 368.73,-234.12"/>
</g>
<!-- Node15 -->
<g id="node15" class="node">
<title>Node15</title>
<g id="a_node15"><a xlink:href="../../d5/da1/classcom_1_1tia_1_1bmm_1_1server_1_1address_1_1_address.html#ad2ca9fb2be91212f1e621fa529b62345" target="_top" xlink:title=" ">
<polygon fill="white" stroke="black" points="358,-147.5 358,-177.5 501,-177.5 501,-147.5 358,-147.5"/>
<text text-anchor="start" x="366" y="-165.5" font-family="Helvetica,sans-Serif" font-size="10.00">com.tia.bmm.server.address.</text>
<text text-anchor="middle" x="429.5" y="-154.5" font-family="Helvetica,sans-Serif" font-size="10.00">Address.getState</text>
</a>
</g>
</g>
<!-- Node3&#45;&gt;Node15 -->
<g id="edge14" class="edge">
<title>Node3&#45;&gt;Node15</title>
<path fill="none" stroke="midnightblue" d="M256.92,-343.33C269.49,-310.25 303.76,-231.12 358,-187.5 360.08,-185.83 362.28,-184.26 364.57,-182.8"/>
<polygon fill="midnightblue" stroke="midnightblue" points="366.76,-185.58 373.77,-177.63 363.33,-179.48 366.76,-185.58"/>
</g>
<!-- Node16 -->
<g id="node16" class="node">
<title>Node16</title>
<g id="a_node16"><a xlink:href="../../d5/da1/classcom_1_1tia_1_1bmm_1_1server_1_1address_1_1_address.html#a54c6bb58e93a72e24cbba6a929b3aed3" target="_top" xlink:title=" ">
<polygon fill="white" stroke="black" points="358,-98.5 358,-128.5 501,-128.5 501,-98.5 358,-98.5"/>
<text text-anchor="start" x="366" y="-116.5" font-family="Helvetica,sans-Serif" font-size="10.00">com.tia.bmm.server.address.</text>
<text text-anchor="middle" x="429.5" y="-105.5" font-family="Helvetica,sans-Serif" font-size="10.00">Address.getStreetNo</text>
</a>
</g>
</g>
<!-- Node3&#45;&gt;Node16 -->
<g id="edge15" class="edge">
<title>Node3&#45;&gt;Node16</title>
<path fill="none" stroke="midnightblue" d="M254.65,-343.28C263.6,-303.74 292.88,-196.82 358,-138.5 359.9,-136.79 361.93,-135.2 364.06,-133.72"/>
<polygon fill="midnightblue" stroke="midnightblue" points="365.91,-136.69 372.64,-128.51 362.28,-130.7 365.91,-136.69"/>
</g>
<!-- Node17 -->
<g id="node17" class="node">
<title>Node17</title>
<g id="a_node17"><a xlink:href="../../d9/ddb/classcom_1_1tia_1_1bmm_1_1server_1_1theatre_1_1_theatre.html#a079c3bcfad970bde006f602defe49fc6" target="_top" xlink:title=" ">
<polygon fill="white" stroke="black" points="360,-49.5 360,-79.5 499,-79.5 499,-49.5 360,-49.5"/>
<text text-anchor="start" x="368" y="-67.5" font-family="Helvetica,sans-Serif" font-size="10.00">com.tia.bmm.server.theatre.</text>
<text text-anchor="middle" x="429.5" y="-56.5" font-family="Helvetica,sans-Serif" font-size="10.00">Theatre.getTheatreName</text>
</a>
</g>
</g>
<!-- Node3&#45;&gt;Node17 -->
<g id="edge16" class="edge">
<title>Node3&#45;&gt;Node17</title>
<path fill="none" stroke="midnightblue" d="M253.14,-343.31C258.83,-298.11 281.72,-163.07 358,-89.5 359.63,-87.93 361.37,-86.45 363.19,-85.06"/>
<polygon fill="midnightblue" stroke="midnightblue" points="365.17,-87.95 371.65,-79.57 361.35,-82.09 365.17,-87.95"/>
</g>
<!-- Node18 -->
<g id="node18" class="node">
<title>Node18</title>
<g id="a_node18"><a xlink:href="../../d0/d85/classcom_1_1tia_1_1bmm_1_1server_1_1movie_1_1_seat.html#af0229e29cc08ff967675345e5d26371e" target="_top" xlink:title=" ">
<polygon fill="white" stroke="black" points="362,-0.5 362,-30.5 497,-30.5 497,-0.5 362,-0.5"/>
<text text-anchor="start" x="370" y="-18.5" font-family="Helvetica,sans-Serif" font-size="10.00">com.tia.bmm.server.movie.</text>
<text text-anchor="middle" x="429.5" y="-7.5" font-family="Helvetica,sans-Serif" font-size="10.00">Seat.setSeatStatus</text>
</a>
</g>
</g>
<!-- Node3&#45;&gt;Node18 -->
<g id="edge17" class="edge">
<title>Node3&#45;&gt;Node18</title>
<path fill="none" stroke="midnightblue" d="M252.09,-343.16C254.85,-292.64 270.47,-129.58 358,-40.5 359.43,-39.04 360.96,-37.67 362.56,-36.37"/>
<polygon fill="midnightblue" stroke="midnightblue" points="364.8,-39.08 371.08,-30.55 360.85,-33.3 364.8,-39.08"/>
</g>
</g>
</svg>
        <g id="navigator" transform="translate(0 0)" fill="#404254">
                <rect fill="#f2f5e9" fill-opacity="0.5" stroke="#606060" stroke-width=".5" x="0" y="0" width="60" height="60"/>
                <use id="zoomplus" xlink:href="#zoomPlus" x="17" y="9" onmousedown="handleZoom(evt,'in')"/>
                <use id="zoomminus" xlink:href="#zoomMin" x="42" y="9" onmousedown="handleZoom(evt,'out')"/>
                <use id="reset" xlink:href="#resetDef" x="30" y="36" onmousedown="handleReset()"/>
                <g id="arrowUp" xlink:href="#dirArrow" transform="translate(30 24)" onmousedown="handlePan(0,-1)">
                  <use xlink:href="#rim" fill="#404040">
                        <set attributeName="fill" to="#808080" begin="arrowUp.mouseover" end="arrowUp.mouseout"/>
                  </use>
                  <path fill="none" stroke="white" stroke-width="1.5" d="M0,-3.0v7 M-2.5,-0.5L0,-3.0L2.5,-0.5"/>
                </g>
                <g id="arrowRight" xlink:href="#dirArrow" transform="rotate(90) translate(36 -43)" onmousedown="handlePan(1,0)">
                  <use xlink:href="#rim" fill="#404040">
                        <set attributeName="fill" to="#808080" begin="arrowRight.mouseover" end="arrowRight.mouseout"/>
                  </use>
                  <path fill="none" stroke="white" stroke-width="1.5" d="M0,-3.0v7 M-2.5,-0.5L0,-3.0L2.5,-0.5"/>
                </g>
                <g id="arrowDown" xlink:href="#dirArrow" transform="rotate(180) translate(-30 -48)" onmousedown="handlePan(0,1)">
                  <use xlink:href="#rim" fill="#404040">
                        <set attributeName="fill" to="#808080" begin="arrowDown.mouseover" end="arrowDown.mouseout"/>
                  </use>
                  <path fill="none" stroke="white" stroke-width="1.5" d="M0,-3.0v7 M-2.5,-0.5L0,-3.0L2.5,-0.5"/>
                </g>
                <g id="arrowLeft" xlink:href="#dirArrow" transform="rotate(270) translate(-36 17)" onmousedown="handlePan(-1,0)">
                  <use xlink:href="#rim" fill="#404040">
                        <set attributeName="fill" to="#808080" begin="arrowLeft.mouseover" end="arrowLeft.mouseout"/>
                  </use>
                  <path fill="none" stroke="white" stroke-width="1.5" d="M0,-3.0v7 M-2.5,-0.5L0,-3.0L2.5,-0.5"/>
                </g>
        </g>
        <svg viewBox="0 0 15 15" width="100%" height="30px" preserveAspectRatio="xMaxYMin meet">
         <g id="arrow_out" transform="scale(0.3 0.3)">
          <a xlink:href="classcom_1_1tia_1_1bmm_1_1server_1_1booking_1_1_my_server_a701d447837f147cf450d6b88edb0a470_cgraph_org.svg" target="_base">
           <rect id="button" ry="5" rx="5" y="6" x="6" height="38" width="38"
                fill="#f2f5e9" fill-opacity="0.5" stroke="#606060" stroke-width="1.0"/>
           <path id="arrow"
             d="M 11.500037,31.436501 C 11.940474,20.09759 22.043105,11.32322 32.158766,21.979434 L 37.068811,17.246167 C 37.068811,17.246167 37.088388,32 37.088388,32 L 22.160133,31.978069 C 22.160133,31.978069 26.997745,27.140456 26.997745,27.140456 C 18.528582,18.264221 13.291696,25.230495 11.500037,31.436501 z"
             style="fill:#404040;"/>
          </a>
         </g>
        </svg>
</svg>
