<?xml version="1.0" encoding="UTF-8" standalone="no"?>
<!DOCTYPE svg PUBLIC "-//W3C//DTD SVG 1.1//EN"
 "http://www.w3.org/Graphics/SVG/1.1/DTD/svg11.dtd">
<!-- Generated by graphviz version 2.43.0 (0)
 -->
<!-- Title: com.tia.bmm.server.address.Address.Address Pages: 1 -->
<svg width="330pt" height="235pt"
 viewBox="0.00 0.00 330.00 235.00" xmlns="http://www.w3.org/2000/svg" xmlns:xlink="http://www.w3.org/1999/xlink">
<g id="graph0" class="graph" transform="scale(1 1) rotate(0) translate(4 231)">
<title>com.tia.bmm.server.address.Address.Address</title>
<polygon fill="white" stroke="transparent" points="-4,4 -4,-231 326,-231 326,4 -4,4"/>
<!-- Node1 -->
<g id="node1" class="node">
<title>Node1</title>
<g id="a_node1"><a xlink:title=" ">
<polygon fill="#bfbfbf" stroke="black" points="0,-98.5 0,-128.5 143,-128.5 143,-98.5 0,-98.5"/>
<text text-anchor="start" x="8" y="-116.5" font-family="Helvetica,sans-Serif" font-size="10.00">com.tia.bmm.server.address.</text>
<text text-anchor="middle" x="71.5" y="-105.5" font-family="Helvetica,sans-Serif" font-size="10.00">Address.Address</text>
</a>
</g>
</g>
<!-- Node2 -->
<g id="node2" class="node">
<title>Node2</title>
<g id="a_node2"><a xlink:href="../../d5/da1/classcom_1_1tia_1_1bmm_1_1server_1_1address_1_1_address.html#a6251019801cce394f29ae4901e25589b" target="_top" xlink:title=" ">
<polygon fill="white" stroke="black" points="179,-196.5 179,-226.5 322,-226.5 322,-196.5 179,-196.5"/>
<text text-anchor="start" x="187" y="-214.5" font-family="Helvetica,sans-Serif" font-size="10.00">com.tia.bmm.server.address.</text>
<text text-anchor="middle" x="250.5" y="-203.5" font-family="Helvetica,sans-Serif" font-size="10.00">Address.setCity</text>
</a>
</g>
</g>
<!-- Node1&#45;&gt;Node2 -->
<g id="edge1" class="edge">
<title>Node1&#45;&gt;Node2</title>
<path fill="none" stroke="midnightblue" d="M90.73,-128.56C111.18,-144.85 145.84,-170.75 179,-187.5 182.53,-189.29 186.23,-190.99 190,-192.6"/>
<polygon fill="midnightblue" stroke="midnightblue" points="188.9,-195.93 199.48,-196.42 191.51,-189.43 188.9,-195.93"/>
</g>
<!-- Node3 -->
<g id="node3" class="node">
<title>Node3</title>
<g id="a_node3"><a xlink:href="../../d5/da1/classcom_1_1tia_1_1bmm_1_1server_1_1address_1_1_address.html#a43c0bc427b4283fd27c0c5dbc6dbc622" target="_top" xlink:title=" ">
<polygon fill="white" stroke="black" points="179,-147.5 179,-177.5 322,-177.5 322,-147.5 179,-147.5"/>
<text text-anchor="start" x="187" y="-165.5" font-family="Helvetica,sans-Serif" font-size="10.00">com.tia.bmm.server.address.</text>
<text text-anchor="middle" x="250.5" y="-154.5" font-family="Helvetica,sans-Serif" font-size="10.00">Address.setLandmark</text>
</a>
</g>
</g>
<!-- Node1&#45;&gt;Node3 -->
<g id="edge2" class="edge">
<title>Node1&#45;&gt;Node3</title>
<path fill="none" stroke="midnightblue" d="M127.05,-128.6C145.47,-133.7 166.21,-139.44 185.31,-144.73"/>
<polygon fill="midnightblue" stroke="midnightblue" points="184.56,-148.15 195.13,-147.45 186.43,-141.41 184.56,-148.15"/>
</g>
<!-- Node4 -->
<g id="node4" class="node">
<title>Node4</title>
<g id="a_node4"><a xlink:href="../../d5/da1/classcom_1_1tia_1_1bmm_1_1server_1_1address_1_1_address.html#a48d03e05fa42e4f49fc1e062b6c26bd3" target="_top" xlink:title=" ">
<polygon fill="white" stroke="black" points="179,-98.5 179,-128.5 322,-128.5 322,-98.5 179,-98.5"/>
<text text-anchor="start" x="187" y="-116.5" font-family="Helvetica,sans-Serif" font-size="10.00">com.tia.bmm.server.address.</text>
<text text-anchor="middle" x="250.5" y="-105.5" font-family="Helvetica,sans-Serif" font-size="10.00">Address.setPinCode</text>
</a>
</g>
</g>
<!-- Node1&#45;&gt;Node4 -->
<g id="edge3" class="edge">
<title>Node1&#45;&gt;Node4</title>
<path fill="none" stroke="midnightblue" d="M143.22,-113.5C151.57,-113.5 160.14,-113.5 168.62,-113.5"/>
<polygon fill="midnightblue" stroke="midnightblue" points="168.89,-117 178.89,-113.5 168.89,-110 168.89,-117"/>
</g>
<!-- Node5 -->
<g id="node5" class="node">
<title>Node5</title>
<g id="a_node5"><a xlink:href="../../d5/da1/classcom_1_1tia_1_1bmm_1_1server_1_1address_1_1_address.html#a6e61a1bafaac2e7a685872b8ba2eb3b4" target="_top" xlink:title=" ">
<polygon fill="white" stroke="black" points="179,-49.5 179,-79.5 322,-79.5 322,-49.5 179,-49.5"/>
<text text-anchor="start" x="187" y="-67.5" font-family="Helvetica,sans-Serif" font-size="10.00">com.tia.bmm.server.address.</text>
<text text-anchor="middle" x="250.5" y="-56.5" font-family="Helvetica,sans-Serif" font-size="10.00">Address.setState</text>
</a>
</g>
</g>
<!-- Node1&#45;&gt;Node5 -->
<g id="edge4" class="edge">
<title>Node1&#45;&gt;Node5</title>
<path fill="none" stroke="midnightblue" d="M127.05,-98.4C145.47,-93.3 166.21,-87.56 185.31,-82.27"/>
<polygon fill="midnightblue" stroke="midnightblue" points="186.43,-85.59 195.13,-79.55 184.56,-78.85 186.43,-85.59"/>
</g>
<!-- Node6 -->
<g id="node6" class="node">
<title>Node6</title>
<g id="a_node6"><a xlink:href="../../d5/da1/classcom_1_1tia_1_1bmm_1_1server_1_1address_1_1_address.html#a2f6ea90933ad093755c925f3e229e2e9" target="_top" xlink:title=" ">
<polygon fill="white" stroke="black" points="179,-0.5 179,-30.5 322,-30.5 322,-0.5 179,-0.5"/>
<text text-anchor="start" x="187" y="-18.5" font-family="Helvetica,sans-Serif" font-size="10.00">com.tia.bmm.server.address.</text>
<text text-anchor="middle" x="250.5" y="-7.5" font-family="Helvetica,sans-Serif" font-size="10.00">Address.setStreetNo</text>
</a>
</g>
</g>
<!-- Node1&#45;&gt;Node6 -->
<g id="edge5" class="edge">
<title>Node1&#45;&gt;Node6</title>
<path fill="none" stroke="midnightblue" d="M91.18,-98.45C111.74,-82.45 146.24,-57.18 179,-40.5 183.26,-38.33 187.75,-36.27 192.32,-34.33"/>
<polygon fill="midnightblue" stroke="midnightblue" points="193.8,-37.51 201.76,-30.52 191.18,-31.02 193.8,-37.51"/>
</g>
</g>
</svg>
