<?xml version="1.0" encoding="UTF-8" standalone="no"?>
<!DOCTYPE svg PUBLIC "-//W3C//DTD SVG 1.1//EN"
 "http://www.w3.org/Graphics/SVG/1.1/DTD/svg11.dtd">
<!-- Generated by graphviz version 2.43.0 (0)
 -->
<!-- Title: com.tia.bmm.server.theatre.TheatreList.displayTheatre Pages: 1 -->
<svg width="505pt" height="235pt"
 viewBox="0.00 0.00 505.00 235.00" xmlns="http://www.w3.org/2000/svg" xmlns:xlink="http://www.w3.org/1999/xlink">
<g id="graph0" class="graph" transform="scale(1 1) rotate(0) translate(4 231)">
<title>com.tia.bmm.server.theatre.TheatreList.displayTheatre</title>
<polygon fill="white" stroke="transparent" points="-4,4 -4,-231 501,-231 501,4 -4,4"/>
<!-- Node1 -->
<g id="node1" class="node">
<title>Node1</title>
<g id="a_node1"><a xlink:title=" ">
<polygon fill="#bfbfbf" stroke="black" points="0,-73.5 0,-103.5 139,-103.5 139,-73.5 0,-73.5"/>
<text text-anchor="start" x="8" y="-91.5" font-family="Helvetica,sans-Serif" font-size="10.00">com.tia.bmm.server.theatre.</text>
<text text-anchor="middle" x="69.5" y="-80.5" font-family="Helvetica,sans-Serif" font-size="10.00">TheatreList.displayTheatre</text>
</a>
</g>
</g>
<!-- Node2 -->
<g id="node2" class="node">
<title>Node2</title>
<g id="a_node2"><a xlink:href="../../d5/da1/classcom_1_1tia_1_1bmm_1_1server_1_1address_1_1_address.html#a07eff711b146256671cc044923b429d3" target="_top" xlink:title=" ">
<polygon fill="white" stroke="black" points="175,-98.5 175,-128.5 318,-128.5 318,-98.5 175,-98.5"/>
<text text-anchor="start" x="183" y="-116.5" font-family="Helvetica,sans-Serif" font-size="10.00">com.tia.bmm.server.address.</text>
<text text-anchor="middle" x="246.5" y="-105.5" font-family="Helvetica,sans-Serif" font-size="10.00">Address.displayAddress</text>
</a>
</g>
</g>
<!-- Node1&#45;&gt;Node2 -->
<g id="edge1" class="edge">
<title>Node1&#45;&gt;Node2</title>
<path fill="none" stroke="midnightblue" d="M139.16,-98.31C147.56,-99.51 156.2,-100.74 164.75,-101.96"/>
<polygon fill="midnightblue" stroke="midnightblue" points="164.34,-105.44 174.73,-103.39 165.33,-98.51 164.34,-105.44"/>
</g>
<!-- Node8 -->
<g id="node8" class="node">
<title>Node8</title>
<g id="a_node8"><a xlink:href="../../d9/ddb/classcom_1_1tia_1_1bmm_1_1server_1_1theatre_1_1_theatre.html#a079c3bcfad970bde006f602defe49fc6" target="_top" xlink:title=" ">
<polygon fill="white" stroke="black" points="177,-49.5 177,-79.5 316,-79.5 316,-49.5 177,-49.5"/>
<text text-anchor="start" x="185" y="-67.5" font-family="Helvetica,sans-Serif" font-size="10.00">com.tia.bmm.server.theatre.</text>
<text text-anchor="middle" x="246.5" y="-56.5" font-family="Helvetica,sans-Serif" font-size="10.00">Theatre.getTheatreName</text>
</a>
</g>
</g>
<!-- Node1&#45;&gt;Node8 -->
<g id="edge7" class="edge">
<title>Node1&#45;&gt;Node8</title>
<path fill="none" stroke="midnightblue" d="M139.16,-79.08C148.23,-77.84 157.59,-76.56 166.81,-75.29"/>
<polygon fill="midnightblue" stroke="midnightblue" points="167.32,-78.76 176.75,-73.93 166.37,-71.82 167.32,-78.76"/>
</g>
<!-- Node3 -->
<g id="node3" class="node">
<title>Node3</title>
<g id="a_node3"><a xlink:href="../../d5/da1/classcom_1_1tia_1_1bmm_1_1server_1_1address_1_1_address.html#af20527e485b38f9b824da440f9907011" target="_top" xlink:title=" ">
<polygon fill="white" stroke="black" points="354,-196.5 354,-226.5 497,-226.5 497,-196.5 354,-196.5"/>
<text text-anchor="start" x="362" y="-214.5" font-family="Helvetica,sans-Serif" font-size="10.00">com.tia.bmm.server.address.</text>
<text text-anchor="middle" x="425.5" y="-203.5" font-family="Helvetica,sans-Serif" font-size="10.00">Address.getCity</text>
</a>
</g>
</g>
<!-- Node2&#45;&gt;Node3 -->
<g id="edge2" class="edge">
<title>Node2&#45;&gt;Node3</title>
<path fill="none" stroke="midnightblue" d="M265.73,-128.56C286.18,-144.85 320.84,-170.75 354,-187.5 357.53,-189.29 361.23,-190.99 365,-192.6"/>
<polygon fill="midnightblue" stroke="midnightblue" points="363.9,-195.93 374.48,-196.42 366.51,-189.43 363.9,-195.93"/>
</g>
<!-- Node4 -->
<g id="node4" class="node">
<title>Node4</title>
<g id="a_node4"><a xlink:href="../../d5/da1/classcom_1_1tia_1_1bmm_1_1server_1_1address_1_1_address.html#adaaefa14d2da4c3dbf4e0c2b21aaacbb" target="_top" xlink:title=" ">
<polygon fill="white" stroke="black" points="354,-147.5 354,-177.5 497,-177.5 497,-147.5 354,-147.5"/>
<text text-anchor="start" x="362" y="-165.5" font-family="Helvetica,sans-Serif" font-size="10.00">com.tia.bmm.server.address.</text>
<text text-anchor="middle" x="425.5" y="-154.5" font-family="Helvetica,sans-Serif" font-size="10.00">Address.getLandmark</text>
</a>
</g>
</g>
<!-- Node2&#45;&gt;Node4 -->
<g id="edge3" class="edge">
<title>Node2&#45;&gt;Node4</title>
<path fill="none" stroke="midnightblue" d="M302.05,-128.6C320.47,-133.7 341.21,-139.44 360.31,-144.73"/>
<polygon fill="midnightblue" stroke="midnightblue" points="359.56,-148.15 370.13,-147.45 361.43,-141.41 359.56,-148.15"/>
</g>
<!-- Node5 -->
<g id="node5" class="node">
<title>Node5</title>
<g id="a_node5"><a xlink:href="../../d5/da1/classcom_1_1tia_1_1bmm_1_1server_1_1address_1_1_address.html#a2ab8b5db51d4918b3ae586899e9f2966" target="_top" xlink:title=" ">
<polygon fill="white" stroke="black" points="354,-98.5 354,-128.5 497,-128.5 497,-98.5 354,-98.5"/>
<text text-anchor="start" x="362" y="-116.5" font-family="Helvetica,sans-Serif" font-size="10.00">com.tia.bmm.server.address.</text>
<text text-anchor="middle" x="425.5" y="-105.5" font-family="Helvetica,sans-Serif" font-size="10.00">Address.getPinCode</text>
</a>
</g>
</g>
<!-- Node2&#45;&gt;Node5 -->
<g id="edge4" class="edge">
<title>Node2&#45;&gt;Node5</title>
<path fill="none" stroke="midnightblue" d="M318.22,-113.5C326.57,-113.5 335.14,-113.5 343.62,-113.5"/>
<polygon fill="midnightblue" stroke="midnightblue" points="343.89,-117 353.89,-113.5 343.89,-110 343.89,-117"/>
</g>
<!-- Node6 -->
<g id="node6" class="node">
<title>Node6</title>
<g id="a_node6"><a xlink:href="../../d5/da1/classcom_1_1tia_1_1bmm_1_1server_1_1address_1_1_address.html#ad2ca9fb2be91212f1e621fa529b62345" target="_top" xlink:title=" ">
<polygon fill="white" stroke="black" points="354,-49.5 354,-79.5 497,-79.5 497,-49.5 354,-49.5"/>
<text text-anchor="start" x="362" y="-67.5" font-family="Helvetica,sans-Serif" font-size="10.00">com.tia.bmm.server.address.</text>
<text text-anchor="middle" x="425.5" y="-56.5" font-family="Helvetica,sans-Serif" font-size="10.00">Address.getState</text>
</a>
</g>
</g>
<!-- Node2&#45;&gt;Node6 -->
<g id="edge5" class="edge">
<title>Node2&#45;&gt;Node6</title>
<path fill="none" stroke="midnightblue" d="M302.05,-98.4C320.47,-93.3 341.21,-87.56 360.31,-82.27"/>
<polygon fill="midnightblue" stroke="midnightblue" points="361.43,-85.59 370.13,-79.55 359.56,-78.85 361.43,-85.59"/>
</g>
<!-- Node7 -->
<g id="node7" class="node">
<title>Node7</title>
<g id="a_node7"><a xlink:href="../../d5/da1/classcom_1_1tia_1_1bmm_1_1server_1_1address_1_1_address.html#a54c6bb58e93a72e24cbba6a929b3aed3" target="_top" xlink:title=" ">
<polygon fill="white" stroke="black" points="354,-0.5 354,-30.5 497,-30.5 497,-0.5 354,-0.5"/>
<text text-anchor="start" x="362" y="-18.5" font-family="Helvetica,sans-Serif" font-size="10.00">com.tia.bmm.server.address.</text>
<text text-anchor="middle" x="425.5" y="-7.5" font-family="Helvetica,sans-Serif" font-size="10.00">Address.getStreetNo</text>
</a>
</g>
</g>
<!-- Node2&#45;&gt;Node7 -->
<g id="edge6" class="edge">
<title>Node2&#45;&gt;Node7</title>
<path fill="none" stroke="midnightblue" d="M302.67,-98.48C308.09,-95.91 313.31,-92.94 318,-89.5 339.79,-73.52 332.31,-56.62 354,-40.5 356.47,-38.66 359.1,-36.95 361.82,-35.36"/>
<polygon fill="midnightblue" stroke="midnightblue" points="363.55,-38.4 370.78,-30.66 360.3,-32.2 363.55,-38.4"/>
</g>
</g>
</svg>
