<?xml version="1.0" encoding="UTF-8" standalone="no"?>
<!DOCTYPE svg PUBLIC "-//W3C//DTD SVG 1.1//EN"
 "http://www.w3.org/Graphics/SVG/1.1/DTD/svg11.dtd">
<!-- Generated by graphviz version 2.43.0 (0)
 -->
<!-- Title: com.tia.bmm.server.theatre.TheatreList.displayMoviesInTheatre Pages: 1 -->
<svg width="534pt" height="39pt"
 viewBox="0.00 0.00 534.00 39.00" xmlns="http://www.w3.org/2000/svg" xmlns:xlink="http://www.w3.org/1999/xlink">
<g id="graph0" class="graph" transform="scale(1 1) rotate(0) translate(4 35)">
<title>com.tia.bmm.server.theatre.TheatreList.displayMoviesInTheatre</title>
<polygon fill="white" stroke="transparent" points="-4,4 -4,-35 530,-35 530,4 -4,4"/>
<!-- Node1 -->
<g id="node1" class="node">
<title>Node1</title>
<g id="a_node1"><a xlink:title=" ">
<polygon fill="#bfbfbf" stroke="black" points="354,-0.5 354,-30.5 526,-30.5 526,-0.5 354,-0.5"/>
<text text-anchor="start" x="362" y="-18.5" font-family="Helvetica,sans-Serif" font-size="10.00">com.tia.bmm.server.theatre.</text>
<text text-anchor="middle" x="440" y="-7.5" font-family="Helvetica,sans-Serif" font-size="10.00">TheatreList.displayMoviesInTheatre</text>
</a>
</g>
</g>
<!-- Node2 -->
<g id="node2" class="node">
<title>Node2</title>
<g id="a_node2"><a xlink:href="../../da/dca/classcom_1_1tia_1_1bmm_1_1server_1_1theatre_1_1_theatre_list.html#a79cd9edb6f713216ef907c7a1ca00c20" target="_top" xlink:title=" ">
<polygon fill="white" stroke="black" points="166,-0.5 166,-30.5 318,-30.5 318,-0.5 166,-0.5"/>
<text text-anchor="start" x="174" y="-18.5" font-family="Helvetica,sans-Serif" font-size="10.00">com.tia.bmm.server.theatre.</text>
<text text-anchor="middle" x="242" y="-7.5" font-family="Helvetica,sans-Serif" font-size="10.00">TheatreList.addMovieInTheatre</text>
</a>
</g>
</g>
<!-- Node1&#45;&gt;Node2 -->
<g id="edge1" class="edge">
<title>Node1&#45;&gt;Node2</title>
<path fill="none" stroke="midnightblue" d="M343.82,-15.5C335.21,-15.5 326.58,-15.5 318.19,-15.5"/>
<polygon fill="midnightblue" stroke="midnightblue" points="343.89,-19 353.89,-15.5 343.89,-12 343.89,-19"/>
</g>
<!-- Node3 -->
<g id="node3" class="node">
<title>Node3</title>
<g id="a_node3"><a xlink:href="../../d2/d9f/classcom_1_1tia_1_1bmm_1_1server_1_1main_1_1_main_menu.html#a0b053293418334fff5572487489f3029" target="_top" xlink:title=" ">
<polygon fill="white" stroke="black" points="0,-0.5 0,-30.5 130,-30.5 130,-0.5 0,-0.5"/>
<text text-anchor="start" x="8" y="-18.5" font-family="Helvetica,sans-Serif" font-size="10.00">com.tia.bmm.server.main.</text>
<text text-anchor="middle" x="65" y="-7.5" font-family="Helvetica,sans-Serif" font-size="10.00">MainMenu.main</text>
</a>
</g>
</g>
<!-- Node2&#45;&gt;Node3 -->
<g id="edge2" class="edge">
<title>Node2&#45;&gt;Node3</title>
<path fill="none" stroke="midnightblue" d="M155.71,-15.5C147.11,-15.5 138.49,-15.5 130.17,-15.5"/>
<polygon fill="midnightblue" stroke="midnightblue" points="155.77,-19 165.77,-15.5 155.77,-12 155.77,-19"/>
</g>
</g>
</svg>
