<?xml version="1.0" encoding="UTF-8" standalone="no"?>
<!DOCTYPE svg PUBLIC "-//W3C//DTD SVG 1.1//EN"
 "http://www.w3.org/Graphics/SVG/1.1/DTD/svg11.dtd">
<!-- Generated by graphviz version 2.43.0 (0)
 -->
<!-- Title: com.tia.bmm.server.theatre.TheatreList.displayMoviesInTheatre Pages: 1 -->
<!--zoomable 161 -->
<svg id="main" version="1.1" xmlns="http://www.w3.org/2000/svg" xmlns:xlink="http://www.w3.org/1999/xlink" xml:space="preserve" onload="init(evt)">
<style type="text/css"><![CDATA[
.edge:hover path { stroke: red; }
.edge:hover polygon { stroke: red; fill: red; }
]]></style>
<script type="text/javascript"><![CDATA[
var edges = document.getElementsByTagName('g');
if (edges && edges.length) {
  for (var i=0;i<edges.length;i++) {
    if (edges[i].id.substr(0,4)=='edge') {
      edges[i].setAttribute('class','edge');
    }
  }
}
]]></script>
        <defs>
                <circle id="rim" cx="0" cy="0" r="7"/>
                <circle id="rim2" cx="0" cy="0" r="3.5"/>
                <g id="zoomPlus">
                        <use xlink:href="#rim" fill="#404040">
                                <set attributeName="fill" to="#808080" begin="zoomplus.mouseover" end="zoomplus.mouseout"/>
                        </use>
                        <path d="M-4,0h8M0,-4v8" fill="none" stroke="white" stroke-width="1.5" pointer-events="none"/>
                </g>
                <g id="zoomMin">
                        <use xlink:href="#rim" fill="#404040">
                                <set attributeName="fill" to="#808080" begin="zoomminus.mouseover" end="zoomminus.mouseout"/>
                        </use>
                        <path d="M-4,0h8" fill="none" stroke="white" stroke-width="1.5" pointer-events="none"/>
                </g>
                <g id="dirArrow">
                        <path fill="none" stroke="white" stroke-width="1.5" d="M0,-3.0v7 M-2.5,-0.5L0,-3.0L2.5,-0.5"/>
                </g>
               <g id="resetDef">
                       <use xlink:href="#rim2" fill="#404040">
                               <set attributeName="fill" to="#808080" begin="reset.mouseover" end="reset.mouseout"/>
                       </use>
               </g>
        </defs>

<script type="text/javascript">
var viewWidth = 526;
var viewHeight = 161;
var sectionId = 'dynsection-6';
</script>
<script xlink:href="../../svgpan.js"/>
<svg id="graph" class="graph">
<g id="viewport">
<title>com.tia.bmm.server.theatre.TheatreList.displayMoviesInTheatre</title>
<polygon fill="white" stroke="transparent" points="-4,4 -4,-157 522,-157 522,4 -4,4"/>
<!-- Node1 -->
<g id="node1" class="node">
<title>Node1</title>
<g id="a_node1"><a xlink:title=" ">
<polygon fill="#bfbfbf" stroke="black" points="0,-49.5 0,-79.5 172,-79.5 172,-49.5 0,-49.5"/>
<text text-anchor="start" x="8" y="-67.5" font-family="Helvetica,sans-Serif" font-size="10.00">com.tia.bmm.server.theatre.</text>
<text text-anchor="middle" x="86" y="-56.5" font-family="Helvetica,sans-Serif" font-size="10.00">TheatreList.displayMoviesInTheatre</text>
</a>
</g>
</g>
<!-- Node2 -->
<g id="node2" class="node">
<title>Node2</title>
<g id="a_node2"><a xlink:href="../../d3/dd3/classcom_1_1tia_1_1bmm_1_1server_1_1movie_1_1_movie.html#a3aa41b12e9b68f28c011ddbbd91916ce" target="_top" xlink:title=" ">
<polygon fill="white" stroke="black" points="210,-98.5 210,-128.5 345,-128.5 345,-98.5 210,-98.5"/>
<text text-anchor="start" x="218" y="-116.5" font-family="Helvetica,sans-Serif" font-size="10.00">com.tia.bmm.server.movie.</text>
<text text-anchor="middle" x="277.5" y="-105.5" font-family="Helvetica,sans-Serif" font-size="10.00">Movie.displayMovie</text>
</a>
</g>
</g>
<!-- Node1&#45;&gt;Node2 -->
<g id="edge1" class="edge">
<title>Node1&#45;&gt;Node2</title>
<path fill="none" stroke="midnightblue" d="M145.14,-79.53C165.24,-84.73 187.94,-90.6 208.74,-95.98"/>
<polygon fill="midnightblue" stroke="midnightblue" points="207.91,-99.38 218.47,-98.49 209.66,-92.6 207.91,-99.38"/>
</g>
<!-- Node5 -->
<g id="node5" class="node">
<title>Node5</title>
<g id="a_node5"><a xlink:href="../../d9/ddb/classcom_1_1tia_1_1bmm_1_1server_1_1theatre_1_1_theatre.html#a7d2e896d0907035193e11e53d6ec58eb" target="_top" xlink:title=" ">
<polygon fill="white" stroke="black" points="208,-49.5 208,-79.5 347,-79.5 347,-49.5 208,-49.5"/>
<text text-anchor="start" x="216" y="-67.5" font-family="Helvetica,sans-Serif" font-size="10.00">com.tia.bmm.server.theatre.</text>
<text text-anchor="middle" x="277.5" y="-56.5" font-family="Helvetica,sans-Serif" font-size="10.00">Theatre.getMovies</text>
</a>
</g>
</g>
<!-- Node1&#45;&gt;Node5 -->
<g id="edge4" class="edge">
<title>Node1&#45;&gt;Node5</title>
<path fill="none" stroke="midnightblue" d="M172.05,-64.5C180.58,-64.5 189.22,-64.5 197.69,-64.5"/>
<polygon fill="midnightblue" stroke="midnightblue" points="197.91,-68 207.91,-64.5 197.91,-61 197.91,-68"/>
</g>
<!-- Node6 -->
<g id="node6" class="node">
<title>Node6</title>
<g id="a_node6"><a xlink:href="../../d9/ddb/classcom_1_1tia_1_1bmm_1_1server_1_1theatre_1_1_theatre.html#a079c3bcfad970bde006f602defe49fc6" target="_top" xlink:title=" ">
<polygon fill="white" stroke="black" points="208,-0.5 208,-30.5 347,-30.5 347,-0.5 208,-0.5"/>
<text text-anchor="start" x="216" y="-18.5" font-family="Helvetica,sans-Serif" font-size="10.00">com.tia.bmm.server.theatre.</text>
<text text-anchor="middle" x="277.5" y="-7.5" font-family="Helvetica,sans-Serif" font-size="10.00">Theatre.getTheatreName</text>
</a>
</g>
</g>
<!-- Node1&#45;&gt;Node6 -->
<g id="edge5" class="edge">
<title>Node1&#45;&gt;Node6</title>
<path fill="none" stroke="midnightblue" d="M145.14,-49.47C165.24,-44.27 187.94,-38.4 208.74,-33.02"/>
<polygon fill="midnightblue" stroke="midnightblue" points="209.66,-36.4 218.47,-30.51 207.91,-29.62 209.66,-36.4"/>
</g>
<!-- Node3 -->
<g id="node3" class="node">
<title>Node3</title>
<g id="a_node3"><a xlink:href="../../d3/dd3/classcom_1_1tia_1_1bmm_1_1server_1_1movie_1_1_movie.html#ad7a45b31dd418b191289f13e68d45096" target="_top" xlink:title=" ">
<polygon fill="white" stroke="black" points="383,-122.5 383,-152.5 518,-152.5 518,-122.5 383,-122.5"/>
<text text-anchor="start" x="391" y="-140.5" font-family="Helvetica,sans-Serif" font-size="10.00">com.tia.bmm.server.movie.</text>
<text text-anchor="middle" x="450.5" y="-129.5" font-family="Helvetica,sans-Serif" font-size="10.00">Movie.getMovieId</text>
</a>
</g>
</g>
<!-- Node2&#45;&gt;Node3 -->
<g id="edge2" class="edge">
<title>Node2&#45;&gt;Node3</title>
<path fill="none" stroke="midnightblue" d="M345.1,-122.85C354.19,-124.12 363.58,-125.44 372.83,-126.74"/>
<polygon fill="midnightblue" stroke="midnightblue" points="372.41,-130.21 382.8,-128.14 373.38,-123.28 372.41,-130.21"/>
</g>
<!-- Node4 -->
<g id="node4" class="node">
<title>Node4</title>
<g id="a_node4"><a xlink:href="../../d3/dd3/classcom_1_1tia_1_1bmm_1_1server_1_1movie_1_1_movie.html#a6eeb3237fadae77e1fc1d1466d02f5cb" target="_top" xlink:title=" ">
<polygon fill="white" stroke="black" points="383,-73.5 383,-103.5 518,-103.5 518,-73.5 383,-73.5"/>
<text text-anchor="start" x="391" y="-91.5" font-family="Helvetica,sans-Serif" font-size="10.00">com.tia.bmm.server.movie.</text>
<text text-anchor="middle" x="450.5" y="-80.5" font-family="Helvetica,sans-Serif" font-size="10.00">Movie.getMovieName</text>
</a>
</g>
</g>
<!-- Node2&#45;&gt;Node4 -->
<g id="edge3" class="edge">
<title>Node2&#45;&gt;Node4</title>
<path fill="none" stroke="midnightblue" d="M345.1,-103.76C354.19,-102.43 363.58,-101.06 372.83,-99.71"/>
<polygon fill="midnightblue" stroke="midnightblue" points="373.41,-103.16 382.8,-98.25 372.4,-96.24 373.41,-103.16"/>
</g>
</g>
</svg>
        <g id="navigator" transform="translate(0 0)" fill="#404254">
                <rect fill="#f2f5e9" fill-opacity="0.5" stroke="#606060" stroke-width=".5" x="0" y="0" width="60" height="60"/>
                <use id="zoomplus" xlink:href="#zoomPlus" x="17" y="9" onmousedown="handleZoom(evt,'in')"/>
                <use id="zoomminus" xlink:href="#zoomMin" x="42" y="9" onmousedown="handleZoom(evt,'out')"/>
                <use id="reset" xlink:href="#resetDef" x="30" y="36" onmousedown="handleReset()"/>
                <g id="arrowUp" xlink:href="#dirArrow" transform="translate(30 24)" onmousedown="handlePan(0,-1)">
                  <use xlink:href="#rim" fill="#404040">
                        <set attributeName="fill" to="#808080" begin="arrowUp.mouseover" end="arrowUp.mouseout"/>
                  </use>
                  <path fill="none" stroke="white" stroke-width="1.5" d="M0,-3.0v7 M-2.5,-0.5L0,-3.0L2.5,-0.5"/>
                </g>
                <g id="arrowRight" xlink:href="#dirArrow" transform="rotate(90) translate(36 -43)" onmousedown="handlePan(1,0)">
                  <use xlink:href="#rim" fill="#404040">
                        <set attributeName="fill" to="#808080" begin="arrowRight.mouseover" end="arrowRight.mouseout"/>
                  </use>
                  <path fill="none" stroke="white" stroke-width="1.5" d="M0,-3.0v7 M-2.5,-0.5L0,-3.0L2.5,-0.5"/>
                </g>
                <g id="arrowDown" xlink:href="#dirArrow" transform="rotate(180) translate(-30 -48)" onmousedown="handlePan(0,1)">
                  <use xlink:href="#rim" fill="#404040">
                        <set attributeName="fill" to="#808080" begin="arrowDown.mouseover" end="arrowDown.mouseout"/>
                  </use>
                  <path fill="none" stroke="white" stroke-width="1.5" d="M0,-3.0v7 M-2.5,-0.5L0,-3.0L2.5,-0.5"/>
                </g>
                <g id="arrowLeft" xlink:href="#dirArrow" transform="rotate(270) translate(-36 17)" onmousedown="handlePan(-1,0)">
                  <use xlink:href="#rim" fill="#404040">
                        <set attributeName="fill" to="#808080" begin="arrowLeft.mouseover" end="arrowLeft.mouseout"/>
                  </use>
                  <path fill="none" stroke="white" stroke-width="1.5" d="M0,-3.0v7 M-2.5,-0.5L0,-3.0L2.5,-0.5"/>
                </g>
        </g>
        <svg viewBox="0 0 15 15" width="100%" height="30px" preserveAspectRatio="xMaxYMin meet">
         <g id="arrow_out" transform="scale(0.3 0.3)">
          <a xlink:href="classcom_1_1tia_1_1bmm_1_1server_1_1theatre_1_1_theatre_list_a11ed7b410b1ceaed743494db408f2cff_cgraph_org.svg" target="_base">
           <rect id="button" ry="5" rx="5" y="6" x="6" height="38" width="38"
                fill="#f2f5e9" fill-opacity="0.5" stroke="#606060" stroke-width="1.0"/>
           <path id="arrow"
             d="M 11.500037,31.436501 C 11.940474,20.09759 22.043105,11.32322 32.158766,21.979434 L 37.068811,17.246167 C 37.068811,17.246167 37.088388,32 37.088388,32 L 22.160133,31.978069 C 22.160133,31.978069 26.997745,27.140456 26.997745,27.140456 C 18.528582,18.264221 13.291696,25.230495 11.500037,31.436501 z"
             style="fill:#404040;"/>
          </a>
         </g>
        </svg>
</svg>
