<?xml version="1.0" encoding="UTF-8" standalone="no"?>
<!DOCTYPE svg PUBLIC "-//W3C//DTD SVG 1.1//EN"
 "http://www.w3.org/Graphics/SVG/1.1/DTD/svg11.dtd">
<!-- Generated by graphviz version 2.43.0 (0)
 -->
<!-- Title: com.tia.bmm.server.theatre.TheatreList.displayTheatreList Pages: 1 -->
<svg width="514pt" height="235pt"
 viewBox="0.00 0.00 514.00 235.00" xmlns="http://www.w3.org/2000/svg" xmlns:xlink="http://www.w3.org/1999/xlink">
<g id="graph0" class="graph" transform="scale(1 1) rotate(0) translate(4 231)">
<title>com.tia.bmm.server.theatre.TheatreList.displayTheatreList</title>
<polygon fill="white" stroke="transparent" points="-4,4 -4,-231 510,-231 510,4 -4,4"/>
<!-- Node1 -->
<g id="node1" class="node">
<title>Node1</title>
<g id="a_node1"><a xlink:title=" ">
<polygon fill="#bfbfbf" stroke="black" points="0,-73.5 0,-103.5 148,-103.5 148,-73.5 0,-73.5"/>
<text text-anchor="start" x="8" y="-91.5" font-family="Helvetica,sans-Serif" font-size="10.00">com.tia.bmm.server.theatre.</text>
<text text-anchor="middle" x="74" y="-80.5" font-family="Helvetica,sans-Serif" font-size="10.00">TheatreList.displayTheatreList</text>
</a>
</g>
</g>
<!-- Node2 -->
<g id="node2" class="node">
<title>Node2</title>
<g id="a_node2"><a xlink:href="../../d5/da1/classcom_1_1tia_1_1bmm_1_1server_1_1address_1_1_address.html#a07eff711b146256671cc044923b429d3" target="_top" xlink:title=" ">
<polygon fill="white" stroke="black" points="184,-98.5 184,-128.5 327,-128.5 327,-98.5 184,-98.5"/>
<text text-anchor="start" x="192" y="-116.5" font-family="Helvetica,sans-Serif" font-size="10.00">com.tia.bmm.server.address.</text>
<text text-anchor="middle" x="255.5" y="-105.5" font-family="Helvetica,sans-Serif" font-size="10.00">Address.displayAddress</text>
</a>
</g>
</g>
<!-- Node1&#45;&gt;Node2 -->
<g id="edge1" class="edge">
<title>Node1&#45;&gt;Node2</title>
<path fill="none" stroke="midnightblue" d="M148.01,-98.67C156.52,-99.85 165.24,-101.07 173.85,-102.27"/>
<polygon fill="midnightblue" stroke="midnightblue" points="173.49,-105.75 183.88,-103.66 174.46,-98.82 173.49,-105.75"/>
</g>
<!-- Node8 -->
<g id="node8" class="node">
<title>Node8</title>
<g id="a_node8"><a xlink:href="../../d9/ddb/classcom_1_1tia_1_1bmm_1_1server_1_1theatre_1_1_theatre.html#a079c3bcfad970bde006f602defe49fc6" target="_top" xlink:title=" ">
<polygon fill="white" stroke="black" points="186,-49.5 186,-79.5 325,-79.5 325,-49.5 186,-49.5"/>
<text text-anchor="start" x="194" y="-67.5" font-family="Helvetica,sans-Serif" font-size="10.00">com.tia.bmm.server.theatre.</text>
<text text-anchor="middle" x="255.5" y="-56.5" font-family="Helvetica,sans-Serif" font-size="10.00">Theatre.getTheatreName</text>
</a>
</g>
</g>
<!-- Node1&#45;&gt;Node8 -->
<g id="edge7" class="edge">
<title>Node1&#45;&gt;Node8</title>
<path fill="none" stroke="midnightblue" d="M148.01,-78.74C157.2,-77.51 166.64,-76.25 175.92,-75.01"/>
<polygon fill="midnightblue" stroke="midnightblue" points="176.45,-78.47 185.9,-73.67 175.53,-71.53 176.45,-78.47"/>
</g>
<!-- Node3 -->
<g id="node3" class="node">
<title>Node3</title>
<g id="a_node3"><a xlink:href="../../d5/da1/classcom_1_1tia_1_1bmm_1_1server_1_1address_1_1_address.html#af20527e485b38f9b824da440f9907011" target="_top" xlink:title=" ">
<polygon fill="white" stroke="black" points="363,-196.5 363,-226.5 506,-226.5 506,-196.5 363,-196.5"/>
<text text-anchor="start" x="371" y="-214.5" font-family="Helvetica,sans-Serif" font-size="10.00">com.tia.bmm.server.address.</text>
<text text-anchor="middle" x="434.5" y="-203.5" font-family="Helvetica,sans-Serif" font-size="10.00">Address.getCity</text>
</a>
</g>
</g>
<!-- Node2&#45;&gt;Node3 -->
<g id="edge2" class="edge">
<title>Node2&#45;&gt;Node3</title>
<path fill="none" stroke="midnightblue" d="M274.73,-128.56C295.18,-144.85 329.84,-170.75 363,-187.5 366.53,-189.29 370.23,-190.99 374,-192.6"/>
<polygon fill="midnightblue" stroke="midnightblue" points="372.9,-195.93 383.48,-196.42 375.51,-189.43 372.9,-195.93"/>
</g>
<!-- Node4 -->
<g id="node4" class="node">
<title>Node4</title>
<g id="a_node4"><a xlink:href="../../d5/da1/classcom_1_1tia_1_1bmm_1_1server_1_1address_1_1_address.html#adaaefa14d2da4c3dbf4e0c2b21aaacbb" target="_top" xlink:title=" ">
<polygon fill="white" stroke="black" points="363,-147.5 363,-177.5 506,-177.5 506,-147.5 363,-147.5"/>
<text text-anchor="start" x="371" y="-165.5" font-family="Helvetica,sans-Serif" font-size="10.00">com.tia.bmm.server.address.</text>
<text text-anchor="middle" x="434.5" y="-154.5" font-family="Helvetica,sans-Serif" font-size="10.00">Address.getLandmark</text>
</a>
</g>
</g>
<!-- Node2&#45;&gt;Node4 -->
<g id="edge3" class="edge">
<title>Node2&#45;&gt;Node4</title>
<path fill="none" stroke="midnightblue" d="M311.05,-128.6C329.47,-133.7 350.21,-139.44 369.31,-144.73"/>
<polygon fill="midnightblue" stroke="midnightblue" points="368.56,-148.15 379.13,-147.45 370.43,-141.41 368.56,-148.15"/>
</g>
<!-- Node5 -->
<g id="node5" class="node">
<title>Node5</title>
<g id="a_node5"><a xlink:href="../../d5/da1/classcom_1_1tia_1_1bmm_1_1server_1_1address_1_1_address.html#a2ab8b5db51d4918b3ae586899e9f2966" target="_top" xlink:title=" ">
<polygon fill="white" stroke="black" points="363,-98.5 363,-128.5 506,-128.5 506,-98.5 363,-98.5"/>
<text text-anchor="start" x="371" y="-116.5" font-family="Helvetica,sans-Serif" font-size="10.00">com.tia.bmm.server.address.</text>
<text text-anchor="middle" x="434.5" y="-105.5" font-family="Helvetica,sans-Serif" font-size="10.00">Address.getPinCode</text>
</a>
</g>
</g>
<!-- Node2&#45;&gt;Node5 -->
<g id="edge4" class="edge">
<title>Node2&#45;&gt;Node5</title>
<path fill="none" stroke="midnightblue" d="M327.22,-113.5C335.57,-113.5 344.14,-113.5 352.62,-113.5"/>
<polygon fill="midnightblue" stroke="midnightblue" points="352.89,-117 362.89,-113.5 352.89,-110 352.89,-117"/>
</g>
<!-- Node6 -->
<g id="node6" class="node">
<title>Node6</title>
<g id="a_node6"><a xlink:href="../../d5/da1/classcom_1_1tia_1_1bmm_1_1server_1_1address_1_1_address.html#ad2ca9fb2be91212f1e621fa529b62345" target="_top" xlink:title=" ">
<polygon fill="white" stroke="black" points="363,-49.5 363,-79.5 506,-79.5 506,-49.5 363,-49.5"/>
<text text-anchor="start" x="371" y="-67.5" font-family="Helvetica,sans-Serif" font-size="10.00">com.tia.bmm.server.address.</text>
<text text-anchor="middle" x="434.5" y="-56.5" font-family="Helvetica,sans-Serif" font-size="10.00">Address.getState</text>
</a>
</g>
</g>
<!-- Node2&#45;&gt;Node6 -->
<g id="edge5" class="edge">
<title>Node2&#45;&gt;Node6</title>
<path fill="none" stroke="midnightblue" d="M311.05,-98.4C329.47,-93.3 350.21,-87.56 369.31,-82.27"/>
<polygon fill="midnightblue" stroke="midnightblue" points="370.43,-85.59 379.13,-79.55 368.56,-78.85 370.43,-85.59"/>
</g>
<!-- Node7 -->
<g id="node7" class="node">
<title>Node7</title>
<g id="a_node7"><a xlink:href="../../d5/da1/classcom_1_1tia_1_1bmm_1_1server_1_1address_1_1_address.html#a54c6bb58e93a72e24cbba6a929b3aed3" target="_top" xlink:title=" ">
<polygon fill="white" stroke="black" points="363,-0.5 363,-30.5 506,-30.5 506,-0.5 363,-0.5"/>
<text text-anchor="start" x="371" y="-18.5" font-family="Helvetica,sans-Serif" font-size="10.00">com.tia.bmm.server.address.</text>
<text text-anchor="middle" x="434.5" y="-7.5" font-family="Helvetica,sans-Serif" font-size="10.00">Address.getStreetNo</text>
</a>
</g>
</g>
<!-- Node2&#45;&gt;Node7 -->
<g id="edge6" class="edge">
<title>Node2&#45;&gt;Node7</title>
<path fill="none" stroke="midnightblue" d="M311.67,-98.48C317.09,-95.91 322.31,-92.94 327,-89.5 348.79,-73.52 341.31,-56.62 363,-40.5 365.47,-38.66 368.1,-36.95 370.82,-35.36"/>
<polygon fill="midnightblue" stroke="midnightblue" points="372.55,-38.4 379.78,-30.66 369.3,-32.2 372.55,-38.4"/>
</g>
</g>
</svg>
