<?xml version="1.0" encoding="UTF-8" standalone="no"?>
<!DOCTYPE svg PUBLIC "-//W3C//DTD SVG 1.1//EN"
 "http://www.w3.org/Graphics/SVG/1.1/DTD/svg11.dtd">
<!-- Generated by graphviz version 2.43.0 (0)
 -->
<!-- Title: com.tia.bmm.server.movie.Movie Pages: 1 -->
<svg width="397pt" height="176pt"
 viewBox="0.00 0.00 397.00 175.50" xmlns="http://www.w3.org/2000/svg" xmlns:xlink="http://www.w3.org/1999/xlink">
<g id="graph0" class="graph" transform="scale(1 1) rotate(0) translate(4 171.5)">
<title>com.tia.bmm.server.movie.Movie</title>
<polygon fill="white" stroke="transparent" points="-4,4 -4,-171.5 393,-171.5 393,4 -4,4"/>
<!-- Node1 -->
<g id="node1" class="node">
<title>Node1</title>
<g id="a_node1"><a xlink:title=" ">
<polygon fill="#bfbfbf" stroke="black" points="254,-63 254,-93 389,-93 389,-63 254,-63"/>
<text text-anchor="start" x="262" y="-81" font-family="Helvetica,sans-Serif" font-size="10.00">com.tia.bmm.server.movie.</text>
<text text-anchor="middle" x="321.5" y="-70" font-family="Helvetica,sans-Serif" font-size="10.00">Movie</text>
</a>
</g>
</g>
<!-- Node2 -->
<g id="node2" class="node">
<title>Node2</title>
<g id="a_node2"><a xlink:href="../../da/d2a/enumcom_1_1tia_1_1bmm_1_1server_1_1movie_1_1_movie_status.html" target="_top" xlink:title=" ">
<polygon fill="white" stroke="black" points="12.5,-137 12.5,-167 147.5,-167 147.5,-137 12.5,-137"/>
<text text-anchor="start" x="20.5" y="-155" font-family="Helvetica,sans-Serif" font-size="10.00">com.tia.bmm.server.movie.</text>
<text text-anchor="middle" x="80" y="-144" font-family="Helvetica,sans-Serif" font-size="10.00">MovieStatus</text>
</a>
</g>
</g>
<!-- Node2&#45;&gt;Node1 -->
<g id="edge1" class="edge">
<title>Node2&#45;&gt;Node1</title>
<path fill="none" stroke="#9a32cd" stroke-dasharray="5,2" d="M145.03,-134.16C173.05,-126.16 206.25,-116.42 236,-107 249.75,-102.65 264.66,-97.63 278.08,-93"/>
<polygon fill="#9a32cd" stroke="#9a32cd" points="144.01,-130.81 135.35,-136.91 145.93,-137.54 144.01,-130.81"/>
<text text-anchor="middle" x="207" y="-126" font-family="Helvetica,sans-Serif" font-size="10.00"> movieStatus</text>
</g>
<!-- Node3 -->
<g id="node3" class="node">
<title>Node3</title>
<g id="a_node3"><a xlink:href="../../d4/d45/enumcom_1_1tia_1_1bmm_1_1server_1_1movie_1_1_movie_type.html" target="_top" xlink:title=" ">
<polygon fill="white" stroke="black" points="12.5,-88 12.5,-118 147.5,-118 147.5,-88 12.5,-88"/>
<text text-anchor="start" x="20.5" y="-106" font-family="Helvetica,sans-Serif" font-size="10.00">com.tia.bmm.server.movie.</text>
<text text-anchor="middle" x="80" y="-95" font-family="Helvetica,sans-Serif" font-size="10.00">MovieType</text>
</a>
</g>
</g>
<!-- Node3&#45;&gt;Node1 -->
<g id="edge2" class="edge">
<title>Node3&#45;&gt;Node1</title>
<path fill="none" stroke="#9a32cd" stroke-dasharray="5,2" d="M157.99,-94.96C188.82,-91.75 224,-88.07 253.73,-84.97"/>
<polygon fill="#9a32cd" stroke="#9a32cd" points="157.3,-91.52 147.71,-96.04 158.02,-98.48 157.3,-91.52"/>
<text text-anchor="middle" x="207" y="-95" font-family="Helvetica,sans-Serif" font-size="10.00"> movieType</text>
</g>
<!-- Node4 -->
<g id="node4" class="node">
<title>Node4</title>
<g id="a_node4"><a xlink:title=" ">
<polygon fill="white" stroke="#bfbfbf" points="0,-39 0,-69 160,-69 160,-39 0,-39"/>
<text text-anchor="start" x="8" y="-57" font-family="Helvetica,sans-Serif" font-size="10.00">List&lt; com.tia.bmm.server.movie.</text>
<text text-anchor="middle" x="80" y="-46" font-family="Helvetica,sans-Serif" font-size="10.00">Seat &gt;</text>
</a>
</g>
</g>
<!-- Node4&#45;&gt;Node1 -->
<g id="edge3" class="edge">
<title>Node4&#45;&gt;Node1</title>
<path fill="none" stroke="#9a32cd" stroke-dasharray="5,2" d="M170.19,-62.94C197.92,-65.72 228,-68.73 253.91,-71.33"/>
<polygon fill="#9a32cd" stroke="#9a32cd" points="170.38,-59.44 160.09,-61.93 169.69,-66.4 170.38,-59.44"/>
<text text-anchor="middle" x="207" y="-71" font-family="Helvetica,sans-Serif" font-size="10.00"> showAtFour</text>
</g>
<!-- Node5 -->
<g id="node5" class="node">
<title>Node5</title>
<g id="a_node5"><a xlink:title=" ">
<polygon fill="white" stroke="#bfbfbf" points="40,-0.5 40,-19.5 120,-19.5 120,-0.5 40,-0.5"/>
<text text-anchor="middle" x="80" y="-7.5" font-family="Helvetica,sans-Serif" font-size="10.00">List&lt; Integer &gt;</text>
</a>
</g>
</g>
<!-- Node5&#45;&gt;Node1 -->
<g id="edge4" class="edge">
<title>Node5&#45;&gt;Node1</title>
<path fill="none" stroke="#9a32cd" stroke-dasharray="5,2" d="M130.16,-20.72C160.81,-27.73 200.94,-37.51 236,-48 250.76,-52.42 266.75,-57.91 280.8,-62.98"/>
<polygon fill="#9a32cd" stroke="#9a32cd" points="130.68,-17.25 120.15,-18.45 129.13,-24.07 130.68,-17.25"/>
<text text-anchor="middle" x="207" y="-51" font-family="Helvetica,sans-Serif" font-size="10.00"> theaterId</text>
</g>
</g>
</svg>
