<?xml version="1.0" encoding="UTF-8" standalone="no"?>
<!DOCTYPE svg PUBLIC "-//W3C//DTD SVG 1.1//EN"
 "http://www.w3.org/Graphics/SVG/1.1/DTD/svg11.dtd">
<!-- Generated by graphviz version 2.43.0 (0)
 -->
<!-- Title: com.tia.bmm.server.movie.Movie.displayMovie Pages: 1 -->
<svg width="705pt" height="61pt"
 viewBox="0.00 0.00 705.00 61.00" xmlns="http://www.w3.org/2000/svg" xmlns:xlink="http://www.w3.org/1999/xlink">
<g id="graph0" class="graph" transform="scale(1 1) rotate(0) translate(4 57)">
<title>com.tia.bmm.server.movie.Movie.displayMovie</title>
<polygon fill="white" stroke="transparent" points="-4,4 -4,-57 701,-57 701,4 -4,4"/>
<!-- Node1 -->
<g id="node1" class="node">
<title>Node1</title>
<g id="a_node1"><a xlink:title=" ">
<polygon fill="#bfbfbf" stroke="black" points="562,-22.5 562,-52.5 697,-52.5 697,-22.5 562,-22.5"/>
<text text-anchor="start" x="570" y="-40.5" font-family="Helvetica,sans-Serif" font-size="10.00">com.tia.bmm.server.movie.</text>
<text text-anchor="middle" x="629.5" y="-29.5" font-family="Helvetica,sans-Serif" font-size="10.00">Movie.displayMovie</text>
</a>
</g>
</g>
<!-- Node2 -->
<g id="node2" class="node">
<title>Node2</title>
<g id="a_node2"><a xlink:href="../../da/dca/classcom_1_1tia_1_1bmm_1_1server_1_1theatre_1_1_theatre_list.html#a79cd9edb6f713216ef907c7a1ca00c20" target="_top" xlink:title=" ">
<polygon fill="white" stroke="black" points="166,-22.5 166,-52.5 318,-52.5 318,-22.5 166,-22.5"/>
<text text-anchor="start" x="174" y="-40.5" font-family="Helvetica,sans-Serif" font-size="10.00">com.tia.bmm.server.theatre.</text>
<text text-anchor="middle" x="242" y="-29.5" font-family="Helvetica,sans-Serif" font-size="10.00">TheatreList.addMovieInTheatre</text>
</a>
</g>
</g>
<!-- Node1&#45;&gt;Node2 -->
<g id="edge1" class="edge">
<title>Node1&#45;&gt;Node2</title>
<path fill="none" stroke="midnightblue" d="M551.67,-39.99C543.01,-40.2 534.32,-40.38 526,-40.5 449.56,-41.62 430.44,-41.53 354,-40.5 342.43,-40.34 330.19,-40.1 318.23,-39.81"/>
<polygon fill="midnightblue" stroke="midnightblue" points="551.88,-43.49 561.79,-39.74 551.71,-36.49 551.88,-43.49"/>
</g>
<!-- Node4 -->
<g id="node4" class="node">
<title>Node4</title>
<g id="a_node4"><a xlink:href="../../da/dca/classcom_1_1tia_1_1bmm_1_1server_1_1theatre_1_1_theatre_list.html#a11ed7b410b1ceaed743494db408f2cff" target="_top" xlink:title=" ">
<polygon fill="white" stroke="black" points="354,-0.5 354,-30.5 526,-30.5 526,-0.5 354,-0.5"/>
<text text-anchor="start" x="362" y="-18.5" font-family="Helvetica,sans-Serif" font-size="10.00">com.tia.bmm.server.theatre.</text>
<text text-anchor="middle" x="440" y="-7.5" font-family="Helvetica,sans-Serif" font-size="10.00">TheatreList.displayMoviesInTheatre</text>
</a>
</g>
</g>
<!-- Node1&#45;&gt;Node4 -->
<g id="edge3" class="edge">
<title>Node1&#45;&gt;Node4</title>
<path fill="none" stroke="midnightblue" d="M551.69,-28.49C543.26,-27.5 534.64,-26.49 526.11,-25.49"/>
<polygon fill="midnightblue" stroke="midnightblue" points="551.53,-31.99 561.87,-29.68 552.34,-25.04 551.53,-31.99"/>
</g>
<!-- Node3 -->
<g id="node3" class="node">
<title>Node3</title>
<g id="a_node3"><a xlink:href="../../d2/d9f/classcom_1_1tia_1_1bmm_1_1server_1_1main_1_1_main_menu.html#a0b053293418334fff5572487489f3029" target="_top" xlink:title=" ">
<polygon fill="white" stroke="black" points="0,-22.5 0,-52.5 130,-52.5 130,-22.5 0,-22.5"/>
<text text-anchor="start" x="8" y="-40.5" font-family="Helvetica,sans-Serif" font-size="10.00">com.tia.bmm.server.main.</text>
<text text-anchor="middle" x="65" y="-29.5" font-family="Helvetica,sans-Serif" font-size="10.00">MainMenu.main</text>
</a>
</g>
</g>
<!-- Node2&#45;&gt;Node3 -->
<g id="edge2" class="edge">
<title>Node2&#45;&gt;Node3</title>
<path fill="none" stroke="midnightblue" d="M155.71,-37.5C147.11,-37.5 138.49,-37.5 130.17,-37.5"/>
<polygon fill="midnightblue" stroke="midnightblue" points="155.77,-41 165.77,-37.5 155.77,-34 155.77,-41"/>
</g>
<!-- Node4&#45;&gt;Node2 -->
<g id="edge4" class="edge">
<title>Node4&#45;&gt;Node2</title>
<path fill="none" stroke="midnightblue" d="M343.82,-26.18C335.21,-27.15 326.58,-28.12 318.19,-29.06"/>
<polygon fill="midnightblue" stroke="midnightblue" points="344.34,-29.65 353.89,-25.05 343.56,-22.69 344.34,-29.65"/>
</g>
</g>
</svg>
