<?xml version="1.0" encoding="UTF-8" standalone="no"?>
<!DOCTYPE svg PUBLIC "-//W3C//DTD SVG 1.1//EN"
 "http://www.w3.org/Graphics/SVG/1.1/DTD/svg11.dtd">
<!-- Generated by graphviz version 2.43.0 (0)
 -->
<!-- Title: com.tia.bmm.server.movie.Movie.getMovieType Pages: 1 -->
<svg width="501pt" height="88pt"
 viewBox="0.00 0.00 501.00 88.00" xmlns="http://www.w3.org/2000/svg" xmlns:xlink="http://www.w3.org/1999/xlink">
<g id="graph0" class="graph" transform="scale(1 1) rotate(0) translate(4 84)">
<title>com.tia.bmm.server.movie.Movie.getMovieType</title>
<polygon fill="white" stroke="transparent" points="-4,4 -4,-84 497,-84 497,4 -4,4"/>
<!-- Node1 -->
<g id="node1" class="node">
<title>Node1</title>
<g id="a_node1"><a xlink:title=" ">
<polygon fill="#bfbfbf" stroke="black" points="358,-24.5 358,-54.5 493,-54.5 493,-24.5 358,-24.5"/>
<text text-anchor="start" x="366" y="-42.5" font-family="Helvetica,sans-Serif" font-size="10.00">com.tia.bmm.server.movie.</text>
<text text-anchor="middle" x="425.5" y="-31.5" font-family="Helvetica,sans-Serif" font-size="10.00">Movie.getMovieType</text>
</a>
</g>
</g>
<!-- Node2 -->
<g id="node2" class="node">
<title>Node2</title>
<g id="a_node2"><a xlink:href="../../d7/d7d/classcom_1_1tia_1_1bmm_1_1server_1_1movie_1_1_movie_list.html#a083de16c94baa39d0cab4aa1102c3983" target="_top" xlink:title=" ">
<polygon fill="white" stroke="black" points="183,-49.5 183,-79.5 318,-79.5 318,-49.5 183,-49.5"/>
<text text-anchor="start" x="191" y="-67.5" font-family="Helvetica,sans-Serif" font-size="10.00">com.tia.bmm.server.movie.</text>
<text text-anchor="middle" x="250.5" y="-56.5" font-family="Helvetica,sans-Serif" font-size="10.00">MovieList.displayMovieList</text>
</a>
</g>
</g>
<!-- Node1&#45;&gt;Node2 -->
<g id="edge1" class="edge">
<title>Node1&#45;&gt;Node2</title>
<path fill="none" stroke="midnightblue" d="M347.51,-50.63C337.74,-52.04 327.8,-53.47 318.21,-54.86"/>
<polygon fill="midnightblue" stroke="midnightblue" points="348.22,-54.06 357.61,-49.17 347.22,-47.13 348.22,-54.06"/>
</g>
<!-- Node4 -->
<g id="node4" class="node">
<title>Node4</title>
<g id="a_node4"><a xlink:href="../../da/d57/classcom_1_1tia_1_1bmm_1_1server_1_1booking_1_1_booking.html#a447864da63969714d2e23e8329af699a" target="_top" xlink:title=" ">
<polygon fill="white" stroke="black" points="179,-0.5 179,-30.5 322,-30.5 322,-0.5 179,-0.5"/>
<text text-anchor="start" x="187" y="-18.5" font-family="Helvetica,sans-Serif" font-size="10.00">com.tia.bmm.server.booking.</text>
<text text-anchor="middle" x="250.5" y="-7.5" font-family="Helvetica,sans-Serif" font-size="10.00">Booking.handleBooking</text>
</a>
</g>
</g>
<!-- Node1&#45;&gt;Node4 -->
<g id="edge3" class="edge">
<title>Node1&#45;&gt;Node4</title>
<path fill="none" stroke="midnightblue" d="M347.45,-28.81C339.05,-27.65 330.54,-26.46 322.22,-25.31"/>
<polygon fill="midnightblue" stroke="midnightblue" points="347.23,-32.31 357.61,-30.22 348.19,-25.38 347.23,-32.31"/>
</g>
<!-- Node3 -->
<g id="node3" class="node">
<title>Node3</title>
<g id="a_node3"><a xlink:href="../../d2/d9f/classcom_1_1tia_1_1bmm_1_1server_1_1main_1_1_main_menu.html#a0b053293418334fff5572487489f3029" target="_top" xlink:title=" ">
<polygon fill="white" stroke="black" points="6.5,-49.5 6.5,-79.5 136.5,-79.5 136.5,-49.5 6.5,-49.5"/>
<text text-anchor="start" x="14.5" y="-67.5" font-family="Helvetica,sans-Serif" font-size="10.00">com.tia.bmm.server.main.</text>
<text text-anchor="middle" x="71.5" y="-56.5" font-family="Helvetica,sans-Serif" font-size="10.00">MainMenu.main</text>
</a>
</g>
</g>
<!-- Node2&#45;&gt;Node3 -->
<g id="edge2" class="edge">
<title>Node2&#45;&gt;Node3</title>
<path fill="none" stroke="midnightblue" d="M172.82,-64.5C160.79,-64.5 148.47,-64.5 136.76,-64.5"/>
<polygon fill="midnightblue" stroke="midnightblue" points="172.84,-68 182.84,-64.5 172.84,-61 172.84,-68"/>
</g>
<!-- Node5 -->
<g id="node5" class="node">
<title>Node5</title>
<g id="a_node5"><a xlink:href="../../dc/da0/classcom_1_1tia_1_1bmm_1_1server_1_1booking_1_1_my_server.html#a701d447837f147cf450d6b88edb0a470" target="_top" xlink:title=" ">
<polygon fill="white" stroke="black" points="0,-0.5 0,-30.5 143,-30.5 143,-0.5 0,-0.5"/>
<text text-anchor="start" x="8" y="-18.5" font-family="Helvetica,sans-Serif" font-size="10.00">com.tia.bmm.server.booking.</text>
<text text-anchor="middle" x="71.5" y="-7.5" font-family="Helvetica,sans-Serif" font-size="10.00">MyServer.chatWithClient</text>
</a>
</g>
</g>
<!-- Node4&#45;&gt;Node5 -->
<g id="edge4" class="edge">
<title>Node4&#45;&gt;Node5</title>
<path fill="none" stroke="midnightblue" d="M168.51,-15.5C160.03,-15.5 151.46,-15.5 143.11,-15.5"/>
<polygon fill="midnightblue" stroke="midnightblue" points="168.78,-19 178.78,-15.5 168.78,-12 168.78,-19"/>
</g>
</g>
</svg>
