<?xml version="1.0" encoding="UTF-8" standalone="no"?>
<!DOCTYPE svg PUBLIC "-//W3C//DTD SVG 1.1//EN"
 "http://www.w3.org/Graphics/SVG/1.1/DTD/svg11.dtd">
<!-- Generated by graphviz version 2.43.0 (0)
 -->
<!-- Title: com.tia.bmm.server.movie.Movie.getMovieId Pages: 1 -->
<svg width="884pt" height="143pt"
 viewBox="0.00 0.00 884.00 142.60" xmlns="http://www.w3.org/2000/svg" xmlns:xlink="http://www.w3.org/1999/xlink">
<g id="graph0" class="graph" transform="scale(1 1) rotate(0) translate(4 138.6)">
<title>com.tia.bmm.server.movie.Movie.getMovieId</title>
<polygon fill="white" stroke="transparent" points="-4,4 -4,-138.6 880,-138.6 880,4 -4,4"/>
<!-- Node1 -->
<g id="node1" class="node">
<title>Node1</title>
<g id="a_node1"><a xlink:title=" ">
<polygon fill="#bfbfbf" stroke="black" points="741,-44.5 741,-74.5 876,-74.5 876,-44.5 741,-44.5"/>
<text text-anchor="start" x="749" y="-62.5" font-family="Helvetica,sans-Serif" font-size="10.00">com.tia.bmm.server.movie.</text>
<text text-anchor="middle" x="808.5" y="-51.5" font-family="Helvetica,sans-Serif" font-size="10.00">Movie.getMovieId</text>
</a>
</g>
</g>
<!-- Node2 -->
<g id="node2" class="node">
<title>Node2</title>
<g id="a_node2"><a xlink:href="../../d3/dd3/classcom_1_1tia_1_1bmm_1_1server_1_1movie_1_1_movie.html#a3aa41b12e9b68f28c011ddbbd91916ce" target="_top" xlink:title=" ">
<polygon fill="white" stroke="black" points="566,-88.5 566,-118.5 701,-118.5 701,-88.5 566,-88.5"/>
<text text-anchor="start" x="574" y="-106.5" font-family="Helvetica,sans-Serif" font-size="10.00">com.tia.bmm.server.movie.</text>
<text text-anchor="middle" x="633.5" y="-95.5" font-family="Helvetica,sans-Serif" font-size="10.00">Movie.displayMovie</text>
</a>
</g>
</g>
<!-- Node1&#45;&gt;Node2 -->
<g id="edge1" class="edge">
<title>Node1&#45;&gt;Node2</title>
<path fill="none" stroke="midnightblue" d="M738.75,-76.99C723.8,-80.79 708.12,-84.78 693.58,-88.47"/>
<polygon fill="midnightblue" stroke="midnightblue" points="739.62,-80.38 748.45,-74.52 737.89,-73.59 739.62,-80.38"/>
</g>
<!-- Node6 -->
<g id="node6" class="node">
<title>Node6</title>
<g id="a_node6"><a xlink:href="../../d7/d7d/classcom_1_1tia_1_1bmm_1_1server_1_1movie_1_1_movie_list.html#a083de16c94baa39d0cab4aa1102c3983" target="_top" xlink:title=" ">
<polygon fill="white" stroke="black" points="174.5,-44.5 174.5,-74.5 309.5,-74.5 309.5,-44.5 174.5,-44.5"/>
<text text-anchor="start" x="182.5" y="-62.5" font-family="Helvetica,sans-Serif" font-size="10.00">com.tia.bmm.server.movie.</text>
<text text-anchor="middle" x="242" y="-51.5" font-family="Helvetica,sans-Serif" font-size="10.00">MovieList.displayMovieList</text>
</a>
</g>
</g>
<!-- Node1&#45;&gt;Node6 -->
<g id="edge6" class="edge">
<title>Node1&#45;&gt;Node6</title>
<path fill="none" stroke="midnightblue" d="M730.65,-59.5C619.27,-59.5 414.8,-59.5 309.52,-59.5"/>
<polygon fill="midnightblue" stroke="midnightblue" points="730.81,-63 740.81,-59.5 730.81,-56 730.81,-63"/>
</g>
<!-- Node7 -->
<g id="node7" class="node">
<title>Node7</title>
<g id="a_node7"><a xlink:href="../../da/d57/classcom_1_1tia_1_1bmm_1_1server_1_1booking_1_1_booking.html#a447864da63969714d2e23e8329af699a" target="_top" xlink:title=" ">
<polygon fill="white" stroke="black" points="562,-0.5 562,-30.5 705,-30.5 705,-0.5 562,-0.5"/>
<text text-anchor="start" x="570" y="-18.5" font-family="Helvetica,sans-Serif" font-size="10.00">com.tia.bmm.server.booking.</text>
<text text-anchor="middle" x="633.5" y="-7.5" font-family="Helvetica,sans-Serif" font-size="10.00">Booking.handleBooking</text>
</a>
</g>
</g>
<!-- Node1&#45;&gt;Node7 -->
<g id="edge8" class="edge">
<title>Node1&#45;&gt;Node7</title>
<path fill="none" stroke="midnightblue" d="M738.75,-42.01C723.8,-38.21 708.12,-34.22 693.58,-30.53"/>
<polygon fill="midnightblue" stroke="midnightblue" points="737.89,-45.41 748.45,-44.48 739.62,-38.62 737.89,-45.41"/>
</g>
<!-- Node3 -->
<g id="node3" class="node">
<title>Node3</title>
<g id="a_node3"><a xlink:href="../../da/dca/classcom_1_1tia_1_1bmm_1_1server_1_1theatre_1_1_theatre_list.html#a79cd9edb6f713216ef907c7a1ca00c20" target="_top" xlink:title=" ">
<polygon fill="white" stroke="black" points="166,-93.5 166,-123.5 318,-123.5 318,-93.5 166,-93.5"/>
<text text-anchor="start" x="174" y="-111.5" font-family="Helvetica,sans-Serif" font-size="10.00">com.tia.bmm.server.theatre.</text>
<text text-anchor="middle" x="242" y="-100.5" font-family="Helvetica,sans-Serif" font-size="10.00">TheatreList.addMovieInTheatre</text>
</a>
</g>
</g>
<!-- Node2&#45;&gt;Node3 -->
<g id="edge2" class="edge">
<title>Node2&#45;&gt;Node3</title>
<path fill="none" stroke="midnightblue" d="M569.19,-120.88C555.08,-124.05 540.12,-126.87 526,-128.5 450.06,-137.29 430.14,-135.3 354,-128.5 341.62,-127.39 328.55,-125.6 315.89,-123.54"/>
<polygon fill="midnightblue" stroke="midnightblue" points="570.35,-124.21 579.29,-118.53 568.76,-117.39 570.35,-124.21"/>
</g>
<!-- Node5 -->
<g id="node5" class="node">
<title>Node5</title>
<g id="a_node5"><a xlink:href="../../da/dca/classcom_1_1tia_1_1bmm_1_1server_1_1theatre_1_1_theatre_list.html#a11ed7b410b1ceaed743494db408f2cff" target="_top" xlink:title=" ">
<polygon fill="white" stroke="black" points="354,-88.5 354,-118.5 526,-118.5 526,-88.5 354,-88.5"/>
<text text-anchor="start" x="362" y="-106.5" font-family="Helvetica,sans-Serif" font-size="10.00">com.tia.bmm.server.theatre.</text>
<text text-anchor="middle" x="440" y="-95.5" font-family="Helvetica,sans-Serif" font-size="10.00">TheatreList.displayMoviesInTheatre</text>
</a>
</g>
</g>
<!-- Node2&#45;&gt;Node5 -->
<g id="edge4" class="edge">
<title>Node2&#45;&gt;Node5</title>
<path fill="none" stroke="midnightblue" d="M555.5,-103.5C545.9,-103.5 536.05,-103.5 526.33,-103.5"/>
<polygon fill="midnightblue" stroke="midnightblue" points="555.79,-107 565.79,-103.5 555.79,-100 555.79,-107"/>
</g>
<!-- Node4 -->
<g id="node4" class="node">
<title>Node4</title>
<g id="a_node4"><a xlink:href="../../d2/d9f/classcom_1_1tia_1_1bmm_1_1server_1_1main_1_1_main_menu.html#a0b053293418334fff5572487489f3029" target="_top" xlink:title=" ">
<polygon fill="white" stroke="black" points="0,-68.5 0,-98.5 130,-98.5 130,-68.5 0,-68.5"/>
<text text-anchor="start" x="8" y="-86.5" font-family="Helvetica,sans-Serif" font-size="10.00">com.tia.bmm.server.main.</text>
<text text-anchor="middle" x="65" y="-75.5" font-family="Helvetica,sans-Serif" font-size="10.00">MainMenu.main</text>
</a>
</g>
</g>
<!-- Node3&#45;&gt;Node4 -->
<g id="edge3" class="edge">
<title>Node3&#45;&gt;Node4</title>
<path fill="none" stroke="midnightblue" d="M155.71,-96.32C147.11,-95.09 138.49,-93.86 130.17,-92.67"/>
<polygon fill="midnightblue" stroke="midnightblue" points="155.37,-99.8 165.77,-97.75 156.36,-92.87 155.37,-99.8"/>
</g>
<!-- Node5&#45;&gt;Node3 -->
<g id="edge5" class="edge">
<title>Node5&#45;&gt;Node3</title>
<path fill="none" stroke="midnightblue" d="M343.82,-105.93C335.21,-106.15 326.58,-106.37 318.19,-106.58"/>
<polygon fill="midnightblue" stroke="midnightblue" points="343.98,-109.43 353.89,-105.67 343.8,-102.43 343.98,-109.43"/>
</g>
<!-- Node6&#45;&gt;Node4 -->
<g id="edge7" class="edge">
<title>Node6&#45;&gt;Node4</title>
<path fill="none" stroke="midnightblue" d="M164.39,-70.01C152.97,-71.57 141.29,-73.17 130.16,-74.7"/>
<polygon fill="midnightblue" stroke="midnightblue" points="164.91,-73.47 174.34,-68.64 163.96,-66.53 164.91,-73.47"/>
</g>
<!-- Node8 -->
<g id="node8" class="node">
<title>Node8</title>
<g id="a_node8"><a xlink:href="../../dc/da0/classcom_1_1tia_1_1bmm_1_1server_1_1booking_1_1_my_server.html#a701d447837f147cf450d6b88edb0a470" target="_top" xlink:title=" ">
<polygon fill="white" stroke="black" points="368.5,-0.5 368.5,-30.5 511.5,-30.5 511.5,-0.5 368.5,-0.5"/>
<text text-anchor="start" x="376.5" y="-18.5" font-family="Helvetica,sans-Serif" font-size="10.00">com.tia.bmm.server.booking.</text>
<text text-anchor="middle" x="440" y="-7.5" font-family="Helvetica,sans-Serif" font-size="10.00">MyServer.chatWithClient</text>
</a>
</g>
</g>
<!-- Node7&#45;&gt;Node8 -->
<g id="edge9" class="edge">
<title>Node7&#45;&gt;Node8</title>
<path fill="none" stroke="midnightblue" d="M551.69,-15.5C538.43,-15.5 524.78,-15.5 511.79,-15.5"/>
<polygon fill="midnightblue" stroke="midnightblue" points="551.74,-19 561.74,-15.5 551.74,-12 551.74,-19"/>
</g>
</g>
</svg>
